<?xml version="1.0" encoding="UTF-8" standalone="no"?>
<!-- Created with Inkscape (http://www.inkscape.org/) -->

<svg
   version="1.1"
   id="svg2349039"
   width="445.33334"
   height="456"
   viewBox="0 0 445.33334 456"
   sodipodi:docname="maglia_new.svg"
   inkscape:version="1.2.2 (b0a8486, 2022-12-01)"
   xmlns:inkscape="http://www.inkscape.org/namespaces/inkscape"
   xmlns:sodipodi="http://sodipodi.sourceforge.net/DTD/sodipodi-0.dtd"
   xmlns="http://www.w3.org/2000/svg"
   xmlns:svg="http://www.w3.org/2000/svg">
  <defs
     id="defs2349043" />
  <sodipodi:namedview
     id="namedview2349041"
     pagecolor="#ffffff"
     bordercolor="#666666"
     borderopacity="1.0"
     inkscape:showpageshadow="2"
     inkscape:pageopacity="0.0"
     inkscape:pagecheckerboard="0"
     inkscape:deskcolor="#d1d1d1"
     showgrid="false"
     inkscape:zoom="1.2179413"
     inkscape:cx="198.69594"
     inkscape:cy="165.85364"
     inkscape:window-width="1440"
     inkscape:window-height="842"
     inkscape:window-x="324"
     inkscape:window-y="41"
     inkscape:window-maximized="0"
     inkscape:current-layer="g2349045" />
  <g
     inkscape:groupmode="layer"
     inkscape:label="Image"
     id="g2349045">
    <path
       style="fill:#150905;stroke:none;stroke-width:1"
       d="m 117.73243,359.71186 h 1.33333 l 8,58.66667 h 185.33333 l 8,-65.33333 h 1.33334 c 0.46933,5.372 1.784,15.66266 7.192,18.49066 4.35067,2.27467 11.40133,-2.23333 15.47467,-3.75733 13.74266,-5.14 28.05066,-9.85467 41.33333,-16.06667 -6.164,-31.78533 -12.04133,-69.8856 -32.69067,-95.99893 -12.96266,-16.39267 -38.09867,-22.91334 -56.64267,-31.0464 -7.108,-3.11734 -14.748,-6.02494 -20.95333,-10.76747 -5.39733,-4.126 -9.88533,-10.9884 -16.38,-13.38267 -6.17467,-2.276 -14.83333,-0.80453 -21.33333,-0.80453 -16.36534,0 -40.51734,-4.51347 -56,0.78493 -12.41067,4.24707 -22.63067,15.69107 -34.66667,21.3992 -21.3648,10.13294 -48.156676,15.74067 -62.187212,36.48254 -13.512,19.97533 -20.02267,44.796 -25.34774,68 -1.43813,6.26667 -6.75573,18.808 -3.0752,24.808 5.43147,8.85467 31.66294,13.816 41.276806,17.43733 3.703466,1.396 8.951476,4.80934 13.034016,3.47734 4.52026,-1.476 5.68613,-8.464 6.966,-12.38934 z"
       id="path2349166" />
  </g>
</svg>
