<?xml version="1.0" encoding="UTF-8" standalone="no"?>
<svg
   version="1.0"
   width="400pt"
   height="500pt"
   viewBox="0 0 400 500"
   preserveAspectRatio="xMidYMid"
   id="svg18857"
   sodipodi:docname="nuova_maglia1.svg"
   inkscape:version="1.2.2 (b0a8486, 2022-12-01)"
   xmlns:inkscape="http://www.inkscape.org/namespaces/inkscape"
   xmlns:sodipodi="http://sodipodi.sourceforge.net/DTD/sodipodi-0.dtd"
   xmlns="http://www.w3.org/2000/svg"
   xmlns:svg="http://www.w3.org/2000/svg">
  <defs
     id="defs18861">
    <inkscape:path-effect
       effect="spiro"
       id="path-effect24900"
       is_visible="true"
       lpeversion="1" />
    <inkscape:path-effect
       effect="simplify"
       id="path-effect24898"
       is_visible="true"
       lpeversion="1"
       steps="1"
       threshold="0.000793651"
       smooth_angles="360"
       helper_size="0"
       simplify_individual_paths="false"
       simplify_just_coalesce="false" />
    <inkscape:path-effect
       effect="powerstroke"
       id="path-effect24604"
       is_visible="true"
       lpeversion="1"
       offset_points="0.12840122,12.274687"
       not_jump="true"
       sort_points="true"
       interpolator_type="CentripetalCatmullRom"
       interpolator_beta="0.75"
       start_linecap_type="round"
       linejoin_type="spiro"
       miter_limit="4"
       scale_width="1"
       end_linecap_type="round" />
    <inkscape:path-effect
       effect="simplify"
       id="path-effect24602"
       is_visible="true"
       lpeversion="1"
       steps="1"
       threshold="0.0036630037"
       smooth_angles="0"
       helper_size="0"
       simplify_individual_paths="false"
       simplify_just_coalesce="false"
       step="1" />
    <inkscape:path-effect
       effect="spiro"
       id="path-effect24599"
       is_visible="true"
       lpeversion="1" />
    <inkscape:path-effect
       effect="simplify"
       id="path-effect24597"
       is_visible="true"
       lpeversion="1"
       steps="1"
       threshold="0.000793651"
       smooth_angles="360"
       helper_size="0"
       simplify_individual_paths="false"
       simplify_just_coalesce="false" />
    <inkscape:path-effect
       effect="spiro"
       id="path-effect24593"
       is_visible="true"
       lpeversion="1" />
    <inkscape:path-effect
       effect="simplify"
       id="path-effect24591"
       is_visible="true"
       lpeversion="1"
       steps="1"
       threshold="0.000793651"
       smooth_angles="360"
       helper_size="0"
       simplify_individual_paths="false"
       simplify_just_coalesce="false" />
    <inkscape:path-effect
       effect="powerstroke"
       id="path-effect24585"
       is_visible="true"
       lpeversion="1"
       offset_points="0.28905561,12.274687"
       not_jump="true"
       sort_points="true"
       interpolator_type="CentripetalCatmullRom"
       interpolator_beta="0.75"
       start_linecap_type="round"
       linejoin_type="spiro"
       miter_limit="4"
       scale_width="1"
       end_linecap_type="round" />
    <inkscape:path-effect
       effect="simplify"
       id="path-effect24583"
       is_visible="true"
       lpeversion="1"
       steps="1"
       threshold="0.0036630037"
       smooth_angles="0"
       helper_size="0"
       simplify_individual_paths="false"
       simplify_just_coalesce="false"
       step="1" />
    <inkscape:path-effect
       effect="spiro"
       id="path-effect24580"
       is_visible="true"
       lpeversion="1" />
    <inkscape:path-effect
       effect="simplify"
       id="path-effect24578"
       is_visible="true"
       lpeversion="1"
       steps="1"
       threshold="0.000793651"
       smooth_angles="360"
       helper_size="0"
       simplify_individual_paths="false"
       simplify_just_coalesce="false" />
    <inkscape:path-effect
       effect="powerstroke"
       id="path-effect24572"
       is_visible="true"
       lpeversion="1"
       offset_points="0.2894665,12.274687"
       not_jump="true"
       sort_points="true"
       interpolator_type="CentripetalCatmullRom"
       interpolator_beta="0.75"
       start_linecap_type="round"
       linejoin_type="spiro"
       miter_limit="4"
       scale_width="1"
       end_linecap_type="round" />
    <inkscape:path-effect
       effect="simplify"
       id="path-effect24570"
       is_visible="true"
       lpeversion="1"
       steps="1"
       threshold="0.0036630037"
       smooth_angles="0"
       helper_size="0"
       simplify_individual_paths="false"
       simplify_just_coalesce="false"
       step="1" />
  </defs>
  <sodipodi:namedview
     id="namedview18859"
     pagecolor="#ffffff"
     bordercolor="#666666"
     borderopacity="1.0"
     inkscape:showpageshadow="2"
     inkscape:pageopacity="0.0"
     inkscape:pagecheckerboard="0"
     inkscape:deskcolor="#d1d1d1"
     inkscape:document-units="pt"
     showgrid="false"
     inkscape:zoom="0.97599759"
     inkscape:cx="403.68952"
     inkscape:cy="495.90286"
     inkscape:window-width="1440"
     inkscape:window-height="842"
     inkscape:window-x="0"
     inkscape:window-y="30"
     inkscape:window-maximized="1"
     inkscape:current-layer="g18855" />
  <g
     transform="matrix(0.1,0,0,-0.1,1.5126365,1068.5126)"
     fill="#000000"
     stroke="none"
     id="g18855">
    <path
       style="fill:#000000;stroke:none;stroke-width:1px;stroke-linecap:butt;stroke-linejoin:miter;stroke-opacity:1"
       d="M 452.79956,382.97023 389.51673,584.82064"
       id="path24576"
       inkscape:original-d="M 452.79956,382.97023 389.51673,584.82064"
       inkscape:path-effect="#path-effect24578;#path-effect24580" />
    <path
       style="fill:#000000;stroke:none;stroke-width:1px;stroke-linecap:butt;stroke-linejoin:miter;stroke-opacity:1"
       d="m 529.17539,508.44481 -130.92999,78.558"
       id="path24589"
       inkscape:original-d="m 529.17539,508.44481 -130.92999,78.558"
       inkscape:path-effect="#path-effect24591;#path-effect24593" />
    <path
       style="fill:#000000;stroke:none;stroke-width:1px;stroke-linecap:butt;stroke-linejoin:miter;stroke-opacity:1"
       d="m 90.559913,521.53781 -1.091084,-7.63758"
       id="path24595"
       inkscape:original-d="m 90.559913,521.53781 -1.091084,-7.63758"
       inkscape:path-effect="#path-effect24597;#path-effect24599" />
    <path
       style="fill:#000000;stroke:none;stroke-width:1px;stroke-linecap:butt;stroke-linejoin:miter;stroke-opacity:1"
       d="M 584.82064,497.53398 -1.0910833,209.48799"
       id="path24896"
       inkscape:original-d="M 584.82064,497.53398 -1.0910833,209.48799"
       inkscape:path-effect="#path-effect24898;#path-effect24900" />
    <path
       style="fill:#000000;fill-opacity:1;stroke:#fafafa;stroke-width:0.333333;stroke-linecap:round;stroke-linejoin:round;stroke-dasharray:none;stroke-opacity:1;paint-order:stroke markers fill"
       d="m 85.670906,506.48547 -3.517541,-7.9806 2.044991,-4.05111 c 2.522599,-4.99724 8.745992,-12.90628 13.623444,-17.31345 9.54061,-8.62071 24.37555,-15.89325 75.14014,-36.83596 16.69197,-6.88619 29.09028,-12.77825 31.94744,-15.1824 2.63654,-2.2185 4.45332,-5.72458 8.05533,-15.54544 4.09016,-11.15181 5.86612,-14.86176 7.28661,-15.22171 0.69374,-0.17579 5.62881,-0.21635 10.96681,-0.0901 9.65054,0.2282 9.72685,0.24236 13.48631,2.50372 7.84317,4.71774 16.69773,8.49527 19.91303,8.49527 1.37899,0 1.40883,0.19403 0.95947,6.23742 -1.22839,16.52032 -2.01219,47.19591 -1.8082,70.76792 l 0.22581,26.09452 -4.0459,0.33956 c -2.22524,0.18677 -13.45259,0.82315 -24.94967,1.41418 -11.49708,0.59103 -30.91737,1.70195 -43.1562,2.46871 -17.00865,1.06558 -31.72572,1.45137 -62.45337,1.63711 l -40.200963,0.24301 z"
       id="path53895"
       transform="matrix(7.5,0,0,-7.5,-15.126365,10685.126)" />
    <path
       style="fill:#000000;fill-opacity:1;stroke:none;stroke-width:1.53333333;stroke-linecap:round;stroke-linejoin:round;stroke-dasharray:none;stroke-opacity:1;paint-order:stroke markers fill"
       d="m 434.25923,525.52822 c -16.74586,-5.51753 -37.59009,-10.28999 -56.64251,-12.96877 -26.74837,-3.76083 -38.66284,-4.45664 -76.3663,-4.45983 l -33.54727,-0.003 7e-5,-32.20428 c 6e-5,-31.15925 0.0405,-32.17901 1.24692,-31.42561 2.00594,1.25273 4.58774,0.20058 5.42892,-2.21243 0.93521,-2.68275 0.95423,-10.23728 0.0341,-13.5504 -0.72472,-2.60955 -2.73332,-4.26169 -4.40247,-3.62118 -0.78461,0.30108 -0.94447,-0.63887 -0.87997,-5.17402 0.0433,-3.04807 0.27093,-7.51431 0.50574,-9.92499 0.41547,-4.26558 0.48114,-4.38845 2.44986,-4.58447 3.43651,-0.34217 8.36144,-2.15463 18.93651,-6.96898 5.59373,-2.54657 10.96416,-4.63013 11.93429,-4.63013 0.97014,0 4.2006,-0.76975 7.17879,-1.71056 5.03906,-1.59184 5.5539,-1.63869 7.41743,-0.67503 3.17205,1.64033 5.07664,4.73988 9.84067,16.01472 2.45033,5.7991 5.6115,12.45624 7.02483,14.79364 2.33092,3.85493 3.05023,4.48906 7.7415,6.82479 2.8445,1.41624 15.24785,6.68802 27.56299,11.71506 27.6492,11.28642 48.79333,20.34572 56.78126,24.32819 13.47146,6.71633 25.96251,18.58973 31.95543,30.37531 l 1.46391,2.87887 -2.43377,5.55007 c -5.267,12.01108 -12.02127,24.76842 -13.0773,24.70016 -0.57771,-0.0373 -5.14685,-1.41762 -10.15364,-3.06729 z"
       id="path53897"
       transform="matrix(7.5,0,0,-7.5,-15.126365,10685.126)" />
  </g>
</svg>
