<?xml version="1.0" encoding="UTF-8" standalone="no"?>
<svg
   version="1.0"
   width="400pt"
   height="500pt"
   viewBox="0 0 400 500"
   preserveAspectRatio="xMidYMid"
   id="svg18857"
   sodipodi:docname="nuova_base_testa.svg"
   inkscape:version="1.2.2 (b0a8486, 2022-12-01)"
   xmlns:inkscape="http://www.inkscape.org/namespaces/inkscape"
   xmlns:sodipodi="http://sodipodi.sourceforge.net/DTD/sodipodi-0.dtd"
   xmlns="http://www.w3.org/2000/svg"
   xmlns:svg="http://www.w3.org/2000/svg">
  <defs
     id="defs18861" />
  <sodipodi:namedview
     id="namedview18859"
     pagecolor="#ffffff"
     bordercolor="#666666"
     borderopacity="1.0"
     inkscape:showpageshadow="2"
     inkscape:pageopacity="0.0"
     inkscape:pagecheckerboard="0"
     inkscape:deskcolor="#d1d1d1"
     inkscape:document-units="pt"
     showgrid="false"
     inkscape:zoom="0.94262687"
     inkscape:cx="238.69466"
     inkscape:cy="334.17252"
     inkscape:window-width="1440"
     inkscape:window-height="842"
     inkscape:window-x="0"
     inkscape:window-y="30"
     inkscape:window-maximized="1"
     inkscape:current-layer="g18855" />
  <g
     transform="matrix(0.1,0,0,-0.1,0,1067)"
     fill="#000000"
     stroke="none"
     id="g18855">
    <path
       d="m 2034.301,8908.7058 c -6,-11 7,-105 28,-206 18,-82 18,-88 2,-104 -16,-16 -74,-21 -142,-11 -30,4 -31,-14 -1,-36 30,-23 119,-32 159,-17 17,7 34,24 43,46 13,32 12,40 -6,95 -11,32 -20,75 -20,94 0,19 -10,59 -21,90 -20,53 -32,66 -42,49 z"
       id="path18841" />
    <path
       d="m 1813.301,8311.7058 c -10,-15 27,-48 72,-65 49,-19 163,-21 213,-5 19,7 49,23 67,37 50,37 29,49 -52,28 -81,-20 -145,-20 -219,-1 -68,18 -74,18 -81,6 z"
       id="path18843" />
    <ellipse
       style="fill:#000000;stroke-width:36.8504;stroke-linecap:round;stroke-linejoin:round;paint-order:stroke markers fill"
       id="path19445"
       cx="1692.1993"
       cy="-8990.9512"
       transform="scale(1,-1)"
       rx="120.34143"
       ry="40.113811" />
    <ellipse
       style="fill:#000000;stroke-width:36.8504;stroke-linecap:round;stroke-linejoin:round;paint-order:stroke markers fill"
       id="path19445-6"
       cx="2332.8347"
       cy="-8985.2197"
       transform="scale(1,-1)"
       rx="120.34143"
       ry="40.113811" />
    <path
       d="m 1833.4344,8313.7681 c -10,-15 27,-48 72,-65 49,-19 163,-21 213,-5 19,7 49,23 67,37 50,37 29,49 -52,28 -81,-20 -145,-20 -219,-1 -68,18 -74,18 -81,6 z"
       id="path18843-7" />
    <path
       d="m 1840.9821,9966.7691 c -123,-19 -222,-53 -309.9999,-106 -71,-42 -90,-58 -90,-72 0,-6 -6,-11 -14,-11 -17,0 -68,-57 -111,-124 -73,-116 -114,-339 -100,-538 l 7,-98 h -26 c -73,0 -112,-58 -103,-150 8,-70 55,-212 89,-265 33,-51 86,-105 104,-105 13,0 21,-22 44,-125 40,-172 105,-306 196,-400 107.9999,-113 264.9999,-211 374.9999,-235 83,-18 249,-8 321,19 171,66 372,254 451,422 16,35 59,195 73,272 4,27 14,42 33,52 64,33 125,123 159,235 52,173 29,275 -62,272 l -33,-1 -1,172 c 0,269 -40,407 -160,556 -74,91 -224,180 -357,210 -136,30 -359,40 -485,20 z"
       id="path18847"
       style="fill:none;stroke:#000000;stroke-width:35;stroke-dasharray:none;stroke-opacity:1" />
    <ellipse
       style="fill:#000000;stroke-width:36.8504;stroke-linecap:round;stroke-linejoin:round;paint-order:stroke markers fill"
       id="path19445-2"
       cx="1656.4875"
       cy="-9007.6279"
       transform="scale(1,-1)"
       rx="120.34143"
       ry="40.113811" />
    <ellipse
       style="fill:#000000;stroke-width:36.8504;stroke-linecap:round;stroke-linejoin:round;paint-order:stroke markers fill"
       id="path19445-6-9"
       cx="2378.478"
       cy="-8993.251"
       transform="scale(1,-1)"
       rx="120.34143"
       ry="40.113811" />
    <path
       d="m 1848.3303,9969.7597 c -123,-19 -222,-53 -310,-106 -71.0001,-42 -90.0001,-58 -90.0001,-72 0,-6 -6,-11 -14,-11 -17,0 -68,-57 -111,-124 -73,-116 -114,-338.9998 -100,-537.9998 l 7,-98 h -26 c -73,0 -112,-58 -103,-150 8,-70 55,-212 89,-265 33,-51 86,-105 104,-105 13,0 21,-22 44,-125 40,-172 105,-306 196.0001,-400 108,-113 265,-211 375,-235 83,-18 249,-8 321,19 171,66 372,254 451,422 16,35 59,195 73,272 4,27 14,42 33,52 64,33 125,123 159,235 52,173 29,275 -62,272 l -33,-1 -1,172 c 0,269 -40,406.9998 -160,555.9998 -74,91 -224,180 -357,210 -136,30 -359,40 -485,20 z"
       id="path18847-1" />
  </g>
</svg>
