<?xml version="1.0" encoding="UTF-8" standalone="no"?>
<!-- Created with Inkscape (http://www.inkscape.org/) -->

<svg
   version="1.1"
   id="svg2349039"
   width="445.33334"
   height="456"
   viewBox="0 0 445.33334 456"
   sodipodi:docname="testa.svg"
   inkscape:version="1.2.2 (b0a8486, 2022-12-01)"
   xmlns:inkscape="http://www.inkscape.org/namespaces/inkscape"
   xmlns:sodipodi="http://sodipodi.sourceforge.net/DTD/sodipodi-0.dtd"
   xmlns="http://www.w3.org/2000/svg"
   xmlns:svg="http://www.w3.org/2000/svg">
  <defs
     id="defs2349043" />
  <sodipodi:namedview
     id="namedview2349041"
     pagecolor="#ffffff"
     bordercolor="#666666"
     borderopacity="1.0"
     inkscape:showpageshadow="2"
     inkscape:pageopacity="0.0"
     inkscape:pagecheckerboard="0"
     inkscape:deskcolor="#d1d1d1"
     showgrid="false"
     inkscape:zoom="1.2179413"
     inkscape:cx="198.69594"
     inkscape:cy="165.85364"
     inkscape:window-width="1440"
     inkscape:window-height="842"
     inkscape:window-x="324"
     inkscape:window-y="41"
     inkscape:window-maximized="0"
     inkscape:current-layer="g2349045" />
  <g
     inkscape:groupmode="layer"
     inkscape:label="Image"
     id="g2349045">
    <path
       style="fill:#000000;stroke:none;stroke-width:1"
       d="m 213.86175,194.29581 c -12.10847,-3.30347 -24.19355,-10.3892 -33.71076,-19.76533 -11.15894,-10.99349 -18.28381,-23.69502 -22.72227,-40.50699 l -2.32172,-8.79422 -4.08524,-2.32699 c -5.42767,-3.09166 -7.975,-5.54133 -10.51985,-10.11651 -2.78562,-5.00804 -4.10419,-12.681 -2.29586,-13.360004 0.70048,-0.26303 6.4619,-0.4216 12.80314,-0.3524 7.79275,0.085 13.6587,-0.29278 18.09889,-1.16572 6.43923,-1.26597 12.68441,-2.05568 29.97264,-3.79011 11.1508,-1.11869 35.30431,-1.12702 44.75368,-0.0154 16.00855,1.88318 26.49688,3.44038 31.2044,4.63289 3.30833,0.83808 7.89459,1.1878 13.95986,1.06451 13.21505,-0.26863 12.1895,-0.61106 11.52173,3.847044 -1.2318,8.22371 -6.01929,15.0277 -13.57465,19.29236 -2.03239,1.14718 -3.81075,2.16459 -3.95192,2.2609 -0.14117,0.0963 -0.95079,3.37657 -1.79916,7.28947 -3.59913,16.60005 -10.20802,29.36659 -20.88981,40.35336 -9.47313,9.74359 -20.45032,16.62162 -32.79334,20.5475 -7.18028,2.28379 -8.32101,2.35948 -13.64976,0.90567 z m 12.02574,-2.13202 c 3.09616,-0.92227 8.67548,-3.24953 12.39847,-5.17168 21.79774,-11.254 35.41242,-29.4399 41.38533,-55.28072 1.78463,-7.72095 1.8931,-7.92665 4.99693,-9.47605 7.4233,-3.70565 13.3854,-11.43705 13.9275,-18.06056 l 0.25696,-3.13964 -7.7395,-0.23289 c -9.79377,-0.29471 -10.57479,-0.0371 -8.33463,2.7496 1.98299,2.46676 2.13908,4.13806 0.59249,6.344 -0.61116,0.87171 -1.32569,4.17104 -1.58784,7.33185 -0.59726,7.20144 -3.12699,12.28725 -8.60633,17.30233 -4.89578,4.48096 -9.4152,6.80913 -20.63766,10.6314 -14.06553,4.79062 -18.676,3.73357 -21.9168,-5.02489 -2.96212,-8.0053 -5.14657,-11.99066 -7.41713,-13.53192 -4.03615,-2.73974 -4.87386,-2.72655 -8.28497,0.13045 -3.22171,2.69837 -4.48742,4.92071 -7.66202,13.45294 -3.0956,8.31991 -7.10243,9.49511 -19.63155,5.75787 -20.89566,-6.23283 -30.41491,-15.05705 -31.79032,-29.4692 -0.28603,-2.99718 -0.83503,-5.63991 -1.22,-5.87272 -1.54037,-0.93152 -0.70283,-6.02325 1.31564,-7.99832 l 2.01559,-1.97225 h -9.90808 -9.90808 l 0.56686,3.01316 c 1.44219,7.66593 6.19503,14.09882 13.32629,18.03691 3.10923,1.71701 4.4992,3.02311 4.83227,4.54068 4.57989,20.86793 11.92646,34.87115 24.93523,47.52873 8.96841,8.72629 17.54842,14.14177 28.09809,17.73479 8.19919,2.79248 8.80627,2.81814 15.99726,0.67613 z m -24.09542,-47.3556 c 1.1614,-0.89392 2.88216,-3.69617 3.82388,-6.22721 3.09268,-8.31207 4.39096,-10.6774 7.17207,-13.06673 3.54288,-3.0438 6.0466,-3.61965 9.07507,-2.08724 4.07066,2.05975 7.3347,6.46748 9.29884,12.55704 2.18046,6.7603 5.26424,10.44945 8.73475,10.44945 3.16602,0 17.40527,-4.74048 23.91856,-7.96289 9.95607,-4.9257 15.44001,-12.497 16.25269,-22.43898 0.24071,-2.9449 0.82723,-6.14352 1.30335,-7.10805 3.14066,-6.36235 -8.36359,-9.612504 -45.33798,-12.808774 -12.92013,-1.11688 -17.20016,-1.17033 -28.6247,-0.35744 -22.79468,1.62191 -41.09719,4.284944 -47.53683,6.916644 -3.31729,1.35568 -5.04939,4.55982 -3.47097,6.4208 0.59591,0.70259 1.18618,3.27779 1.31171,5.72267 0.35062,6.82848 2.42965,11.83434 6.90507,16.62585 4.77748,5.11493 10.87791,8.44125 22.28852,12.15303 9.93228,3.23089 12.03983,3.40246 14.88597,1.21183 z m -15.85004,-3.89361 c -12.53629,-4.39875 -18.13029,-7.73292 -21.60028,-12.8744 -3.52048,-5.21627 -5.37419,-13.75375 -3.4047,-15.68088 2.24147,-2.19327 23.2819,-5.3996 45.12361,-6.87635 17.36131,-1.17381 43.49195,0.6841 63.22996,4.49572 8.45669,1.63308 8.9323,2.03591 8.32525,7.05128 -1.10577,9.13573 -6.78375,15.95631 -17.02325,20.44884 -7.95415,3.48985 -18.46935,6.68825 -21.03934,6.39951 -2.54421,-0.28584 -3.96223,-2.47726 -6.92549,-10.70272 -2.02293,-5.61529 -8.00892,-11.95617 -12.12136,-12.83999 -5.72801,-1.23103 -13.29044,5.95271 -16.05214,15.24835 -1.72589,5.80923 -4.01503,8.44948 -7.2808,8.39753 -1.43506,-0.0228 -6.48921,-1.40293 -11.23146,-3.06689 z m 12.81047,0.88644 c 1.28925,-0.84236 2.739,-3.74073 4.07814,-8.15315 2.09508,-6.90317 6.8778,-12.45085 12.83075,-14.88293 2.24967,-0.91909 3.24497,-0.93213 5.78872,-0.0759 6.86434,2.3108 10.92872,6.88656 13.80913,15.54655 0.982,2.95239 2.41844,6.01919 3.19209,6.81511 1.35213,1.39107 1.72228,1.34842 9.55361,-1.10073 18.22477,-5.69958 25.33769,-11.43212 27.36588,-22.0551 0.46323,-2.42622 0.38753,-3.80948 -0.23478,-4.29053 -1.16645,-0.90166 -11.93718,-2.9046 -25.14288,-4.67559 -23.05207,-3.09148 -65.73919,-1.20709 -84.47332,3.72901 -2.94367,0.77561 -3.3917,1.18907 -3.3917,3.13008 0,3.91611 2.57098,9.79857 5.6448,12.91548 4.1938,4.25257 9.69595,7.15515 20.17977,10.64552 10.17712,3.38826 9.57585,3.25175 10.79979,2.45208 z"
       id="path2341389" />
    <path
       style="fill:#000000;stroke:none;stroke-width:0.2;stroke-linecap:round;stroke-linejoin:round;stroke-dasharray:none;paint-order:stroke markers fill"
       d="m 215.04791,192.96313 c -9.04715,-2.45507 -18.43794,-7.15504 -25.86123,-12.94321 -3.26547,-2.54619 -11.48673,-10.59475 -14.05545,-13.7602 -8.0892,-9.96834 -13.44253,-21.23562 -17.16238,-36.12204 -1.42265,-5.69332 -1.65204,-6.05323 -5.23259,-8.21018 -7.28486,-4.38846 -11.23859,-9.1245 -13.21418,-15.82884 -0.39041,-1.32489 -0.80474,-3.09484 -0.92074,-3.93322 l -0.2109,-1.52433 h 9.55065 9.55065 l -1.34186,1.46039 c -1.55879,1.69647 -2.35982,3.74954 -2.39291,6.13317 -0.0168,1.20607 0.12121,1.79938 0.51821,2.22863 0.34656,0.37471 0.69649,1.55854 0.97349,3.29338 0.23784,1.48961 0.62663,3.92241 0.86399,5.4062 1.86132,11.63621 10.22858,19.59257 26.69436,25.38344 6.38728,2.24634 10.3438,3.17231 14.24296,3.33333 3.49194,0.1442 3.59225,0.13077 5.19155,-0.69542 2.47305,-1.27757 3.51624,-2.86545 6.0956,-9.27836 1.23031,-3.05885 2.74937,-6.32526 3.37568,-7.25869 1.93207,-2.87951 5.5616,-5.9072 7.08143,-5.9072 1.07071,0 3.21413,1.12067 4.78694,2.50281 1.80937,1.59001 3.46423,4.5016 5.75606,10.12732 2.29943,5.64437 2.90017,6.81767 4.22566,8.25329 3.13931,3.40012 8.96208,3.2108 20.01383,-0.65073 10.79925,-3.7733 15.21787,-6.13693 20.13573,-10.77111 5.09646,-4.80247 7.25414,-9.21259 8.19277,-16.74542 0.58324,-4.6807 0.91531,-6.09552 1.83353,-7.81193 1.09239,-2.04201 0.95794,-3.61971 -0.48919,-5.74021 -1.3576,-1.9893 -1.46061,-2.54269 -0.51928,-2.78954 0.89837,-0.23557 10.83346,-0.23058 13.70445,0.007 l 2.29576,0.18989 -0.20906,2.06031 c -0.51567,5.08202 -2.74,9.37939 -7.08634,13.69069 -1.89258,1.87732 -3.93593,3.33107 -8.03492,5.71651 -1.77664,1.03392 -2.1774,1.94395 -3.85742,8.7592 -3.83119,15.54181 -9.56029,27.35013 -18.04353,37.18973 -9.10011,10.55512 -22.97122,19.46576 -36.65549,23.54707 -4.4043,1.31357 -6.85682,1.48591 -9.79583,0.68838 z"
       id="path2341460" />
  </g>
</svg>
