<?xml version="1.0" encoding="UTF-8" standalone="no"?>
<svg
   version="1.0"
   width="400pt"
   height="500pt"
   viewBox="0 0 400 500"
   preserveAspectRatio="xMidYMid"
   id="svg18857"
   sodipodi:docname="nuova_OCCHIALI.svg"
   inkscape:version="1.2.2 (b0a8486, 2022-12-01)"
   xmlns:inkscape="http://www.inkscape.org/namespaces/inkscape"
   xmlns:sodipodi="http://sodipodi.sourceforge.net/DTD/sodipodi-0.dtd"
   xmlns="http://www.w3.org/2000/svg"
   xmlns:svg="http://www.w3.org/2000/svg">
  <defs
     id="defs18861">
    <inkscape:path-effect
       effect="spiro"
       id="path-effect24900"
       is_visible="true"
       lpeversion="1" />
    <inkscape:path-effect
       effect="simplify"
       id="path-effect24898"
       is_visible="true"
       lpeversion="1"
       steps="1"
       threshold="0.000793651"
       smooth_angles="360"
       helper_size="0"
       simplify_individual_paths="false"
       simplify_just_coalesce="false" />
    <inkscape:path-effect
       effect="powerstroke"
       id="path-effect24604"
       is_visible="true"
       lpeversion="1"
       offset_points="0.12840122,12.274687"
       not_jump="true"
       sort_points="true"
       interpolator_type="CentripetalCatmullRom"
       interpolator_beta="0.75"
       start_linecap_type="round"
       linejoin_type="spiro"
       miter_limit="4"
       scale_width="1"
       end_linecap_type="round" />
    <inkscape:path-effect
       effect="simplify"
       id="path-effect24602"
       is_visible="true"
       lpeversion="1"
       steps="1"
       threshold="0.0036630037"
       smooth_angles="0"
       helper_size="0"
       simplify_individual_paths="false"
       simplify_just_coalesce="false"
       step="1" />
    <inkscape:path-effect
       effect="spiro"
       id="path-effect24599"
       is_visible="true"
       lpeversion="1" />
    <inkscape:path-effect
       effect="simplify"
       id="path-effect24597"
       is_visible="true"
       lpeversion="1"
       steps="1"
       threshold="0.000793651"
       smooth_angles="360"
       helper_size="0"
       simplify_individual_paths="false"
       simplify_just_coalesce="false" />
    <inkscape:path-effect
       effect="spiro"
       id="path-effect24593"
       is_visible="true"
       lpeversion="1" />
    <inkscape:path-effect
       effect="simplify"
       id="path-effect24591"
       is_visible="true"
       lpeversion="1"
       steps="1"
       threshold="0.000793651"
       smooth_angles="360"
       helper_size="0"
       simplify_individual_paths="false"
       simplify_just_coalesce="false" />
    <inkscape:path-effect
       effect="powerstroke"
       id="path-effect24585"
       is_visible="true"
       lpeversion="1"
       offset_points="0.28905561,12.274687"
       not_jump="true"
       sort_points="true"
       interpolator_type="CentripetalCatmullRom"
       interpolator_beta="0.75"
       start_linecap_type="round"
       linejoin_type="spiro"
       miter_limit="4"
       scale_width="1"
       end_linecap_type="round" />
    <inkscape:path-effect
       effect="simplify"
       id="path-effect24583"
       is_visible="true"
       lpeversion="1"
       steps="1"
       threshold="0.0036630037"
       smooth_angles="0"
       helper_size="0"
       simplify_individual_paths="false"
       simplify_just_coalesce="false"
       step="1" />
    <inkscape:path-effect
       effect="spiro"
       id="path-effect24580"
       is_visible="true"
       lpeversion="1" />
    <inkscape:path-effect
       effect="simplify"
       id="path-effect24578"
       is_visible="true"
       lpeversion="1"
       steps="1"
       threshold="0.000793651"
       smooth_angles="360"
       helper_size="0"
       simplify_individual_paths="false"
       simplify_just_coalesce="false" />
    <inkscape:path-effect
       effect="powerstroke"
       id="path-effect24572"
       is_visible="true"
       lpeversion="1"
       offset_points="0.2894665,12.274687"
       not_jump="true"
       sort_points="true"
       interpolator_type="CentripetalCatmullRom"
       interpolator_beta="0.75"
       start_linecap_type="round"
       linejoin_type="spiro"
       miter_limit="4"
       scale_width="1"
       end_linecap_type="round" />
    <inkscape:path-effect
       effect="simplify"
       id="path-effect24570"
       is_visible="true"
       lpeversion="1"
       steps="1"
       threshold="0.0036630037"
       smooth_angles="0"
       helper_size="0"
       simplify_individual_paths="false"
       simplify_just_coalesce="false"
       step="1" />
  </defs>
  <sodipodi:namedview
     id="namedview18859"
     pagecolor="#ffffff"
     bordercolor="#666666"
     borderopacity="1.0"
     inkscape:showpageshadow="2"
     inkscape:pageopacity="0.0"
     inkscape:pagecheckerboard="0"
     inkscape:deskcolor="#d1d1d1"
     inkscape:document-units="pt"
     showgrid="false"
     inkscape:zoom="1.0268584"
     inkscape:cx="245.40871"
     inkscape:cy="334.02852"
     inkscape:window-width="1440"
     inkscape:window-height="842"
     inkscape:window-x="0"
     inkscape:window-y="30"
     inkscape:window-maximized="1"
     inkscape:current-layer="g18855" />
  <g
     transform="matrix(0.1,0,0,-0.1,1.5126365,1068.5126)"
     fill="#000000"
     stroke="none"
     id="g18855">
    <ellipse
       style="fill:#000000;stroke-width:36.8504;stroke-linecap:round;stroke-linejoin:round;paint-order:stroke markers fill"
       id="path19445"
       cx="1692.1993"
       cy="-8990.9512"
       transform="scale(1,-1)"
       rx="120.34143"
       ry="40.113811" />
    <ellipse
       style="fill:#000000;stroke-width:36.8504;stroke-linecap:round;stroke-linejoin:round;paint-order:stroke markers fill"
       id="path19445-6"
       cx="2332.8347"
       cy="-8985.2197"
       transform="scale(1,-1)"
       rx="120.34143"
       ry="40.113811" />
    <ellipse
       style="fill:#000000;stroke-width:36.8504;stroke-linecap:round;stroke-linejoin:round;paint-order:stroke markers fill"
       id="path19445-2"
       cx="1656.4875"
       cy="-9007.6279"
       transform="scale(1,-1)"
       rx="120.34143"
       ry="40.113811" />
    <ellipse
       style="fill:#000000;stroke-width:36.8504;stroke-linecap:round;stroke-linejoin:round;paint-order:stroke markers fill"
       id="path19445-6-9"
       cx="2378.478"
       cy="-8993.251"
       transform="scale(1,-1)"
       rx="120.34143"
       ry="40.113811" />
    <path
       style="fill:#000000;stroke:none;stroke-width:1px;stroke-linecap:butt;stroke-linejoin:miter;stroke-opacity:1"
       d="M 452.79956,382.97023 389.51673,584.82064"
       id="path24576"
       inkscape:original-d="M 452.79956,382.97023 389.51673,584.82064"
       inkscape:path-effect="#path-effect24578;#path-effect24580" />
    <path
       style="fill:#000000;stroke:none;stroke-width:1px;stroke-linecap:butt;stroke-linejoin:miter;stroke-opacity:1"
       d="m 529.17539,508.44481 -130.92999,78.558"
       id="path24589"
       inkscape:original-d="m 529.17539,508.44481 -130.92999,78.558"
       inkscape:path-effect="#path-effect24591;#path-effect24593" />
    <path
       style="fill:#000000;stroke:none;stroke-width:1px;stroke-linecap:butt;stroke-linejoin:miter;stroke-opacity:1"
       d="m 90.559913,521.53781 -1.091084,-7.63758"
       id="path24595"
       inkscape:original-d="m 90.559913,521.53781 -1.091084,-7.63758"
       inkscape:path-effect="#path-effect24597;#path-effect24599" />
    <path
       style="fill:#000000;stroke:none;stroke-width:1px;stroke-linecap:butt;stroke-linejoin:miter;stroke-opacity:1"
       d="M 584.82064,497.53398 -1.0910833,209.48799"
       id="path24896"
       inkscape:original-d="M 584.82064,497.53398 -1.0910833,209.48799"
       inkscape:path-effect="#path-effect24898;#path-effect24900" />
    <path
       d="m 1457.9462,9177.4923 c -82,-10 -209,-38 -298,-67 -54,-18 -55,-19 -58,-59 -3,-40 -1,-43 40,-66 25,-14 46,-33 50,-48 4,-14 15,-52 24,-85 25,-92 64,-124 200,-163 186,-53 294,-65 357,-38 43,17 115,99 155,174 32,60 72,102 98,102 24,0 74,-52 105,-111 41,-77 99,-142 146,-164 50,-24 162,-16 316,24 211,55 221,64 276,261 4,15 23,34 49,48 41,23 43,26 40,66 l -3,41 -70,23 c -193,62 -445,81 -635,47 -156,-28 -223,-35 -259,-29 -20,3 -82,14 -138,25 -124,23 -291,31 -395,19 z m 402,-75 c 150,-29 200,-29 361,4 52,10 132,22 179,25 89,7 283,-8 288,-22 1,-5 16,-7 32,-4 52,7 90,-53 90,-144 0,-63 -21,-133 -49,-163 -29,-31 -165,-80 -231,-84 -19,-1 -38,-6 -42,-12 -4,-5 -47,-10 -96,-10 -81,0 -91,2 -125,27 -19,16 -59,66 -87,112 -65,108 -97,136 -157,136 -56,0 -90,-31 -151,-136 -47,-81 -96,-129 -146,-142 -57,-16 -257,25 -381,78 -37,16 -50,28 -66,64 -43,99 -34,233 19,260 26,13 107,31 182,40 76,9 252,-5 380,-29 z"
       id="path18849" />
    <path
       style="fill:#000000;stroke-width:36.8503;stroke-linecap:round;stroke-linejoin:round;paint-order:stroke markers fill"
       d="m 1499.1799,8724.8435 c -143.2931,37.0463 -190.9082,63.1504 -213.783,117.2024 -41.9338,99.0877 -33.2498,204.8115 19.6711,239.4867 15.0663,9.8718 70.3068,25.5546 122.7567,34.8508 104.2707,18.4806 263.2864,10.0778 456.3879,-24.1171 128.2698,-22.7143 166.3357,-21.8769 328.0218,7.2157 158.9016,28.5916 328.3939,31.9973 456.8163,9.179 79.3656,-14.1018 92.2016,-19.9273 111.4812,-50.5945 25.9367,-41.2562 24.353,-161.9554 -2.8607,-218.0351 -33.1859,-68.3867 -232.0071,-137.2392 -396.8634,-137.4353 -97.1623,-0.1155 -115.1949,12.2631 -194.2693,133.3596 -65.1105,99.7114 -108.5287,135.8782 -163.122,135.8782 -58.4559,0 -81.3039,-19.2764 -154.3988,-130.2638 -34.8483,-52.9135 -78.716,-107.1404 -97.4839,-120.5044 -45.7756,-32.5951 -136.5348,-31.3363 -272.3539,3.7778 z"
       id="path19129" />
  </g>
</svg>
