<?xml version="1.0" encoding="UTF-8" standalone="no"?>
<svg
   version="1.0"
   width="400pt"
   height="500pt"
   viewBox="0 0 400 500"
   preserveAspectRatio="xMidYMid"
   id="svg18857"
   sodipodi:docname="nuova_BARBA.svg"
   inkscape:version="1.2.2 (b0a8486, 2022-12-01)"
   xmlns:inkscape="http://www.inkscape.org/namespaces/inkscape"
   xmlns:sodipodi="http://sodipodi.sourceforge.net/DTD/sodipodi-0.dtd"
   xmlns="http://www.w3.org/2000/svg"
   xmlns:svg="http://www.w3.org/2000/svg">
  <defs
     id="defs18861">
    <inkscape:path-effect
       effect="spiro"
       id="path-effect24900"
       is_visible="true"
       lpeversion="1" />
    <inkscape:path-effect
       effect="simplify"
       id="path-effect24898"
       is_visible="true"
       lpeversion="1"
       steps="1"
       threshold="0.000793651"
       smooth_angles="360"
       helper_size="0"
       simplify_individual_paths="false"
       simplify_just_coalesce="false" />
    <inkscape:path-effect
       effect="powerstroke"
       id="path-effect24604"
       is_visible="true"
       lpeversion="1"
       offset_points="0.12840122,12.274687"
       not_jump="true"
       sort_points="true"
       interpolator_type="CentripetalCatmullRom"
       interpolator_beta="0.75"
       start_linecap_type="round"
       linejoin_type="spiro"
       miter_limit="4"
       scale_width="1"
       end_linecap_type="round" />
    <inkscape:path-effect
       effect="simplify"
       id="path-effect24602"
       is_visible="true"
       lpeversion="1"
       steps="1"
       threshold="0.0036630037"
       smooth_angles="0"
       helper_size="0"
       simplify_individual_paths="false"
       simplify_just_coalesce="false"
       step="1" />
    <inkscape:path-effect
       effect="spiro"
       id="path-effect24599"
       is_visible="true"
       lpeversion="1" />
    <inkscape:path-effect
       effect="simplify"
       id="path-effect24597"
       is_visible="true"
       lpeversion="1"
       steps="1"
       threshold="0.000793651"
       smooth_angles="360"
       helper_size="0"
       simplify_individual_paths="false"
       simplify_just_coalesce="false" />
    <inkscape:path-effect
       effect="spiro"
       id="path-effect24593"
       is_visible="true"
       lpeversion="1" />
    <inkscape:path-effect
       effect="simplify"
       id="path-effect24591"
       is_visible="true"
       lpeversion="1"
       steps="1"
       threshold="0.000793651"
       smooth_angles="360"
       helper_size="0"
       simplify_individual_paths="false"
       simplify_just_coalesce="false" />
    <inkscape:path-effect
       effect="powerstroke"
       id="path-effect24585"
       is_visible="true"
       lpeversion="1"
       offset_points="0.28905561,12.274687"
       not_jump="true"
       sort_points="true"
       interpolator_type="CentripetalCatmullRom"
       interpolator_beta="0.75"
       start_linecap_type="round"
       linejoin_type="spiro"
       miter_limit="4"
       scale_width="1"
       end_linecap_type="round" />
    <inkscape:path-effect
       effect="simplify"
       id="path-effect24583"
       is_visible="true"
       lpeversion="1"
       steps="1"
       threshold="0.0036630037"
       smooth_angles="0"
       helper_size="0"
       simplify_individual_paths="false"
       simplify_just_coalesce="false"
       step="1" />
    <inkscape:path-effect
       effect="spiro"
       id="path-effect24580"
       is_visible="true"
       lpeversion="1" />
    <inkscape:path-effect
       effect="simplify"
       id="path-effect24578"
       is_visible="true"
       lpeversion="1"
       steps="1"
       threshold="0.000793651"
       smooth_angles="360"
       helper_size="0"
       simplify_individual_paths="false"
       simplify_just_coalesce="false" />
    <inkscape:path-effect
       effect="powerstroke"
       id="path-effect24572"
       is_visible="true"
       lpeversion="1"
       offset_points="0.2894665,12.274687"
       not_jump="true"
       sort_points="true"
       interpolator_type="CentripetalCatmullRom"
       interpolator_beta="0.75"
       start_linecap_type="round"
       linejoin_type="spiro"
       miter_limit="4"
       scale_width="1"
       end_linecap_type="round" />
    <inkscape:path-effect
       effect="simplify"
       id="path-effect24570"
       is_visible="true"
       lpeversion="1"
       steps="1"
       threshold="0.0036630037"
       smooth_angles="0"
       helper_size="0"
       simplify_individual_paths="false"
       simplify_just_coalesce="false"
       step="1" />
  </defs>
  <sodipodi:namedview
     id="namedview18859"
     pagecolor="#ffffff"
     bordercolor="#666666"
     borderopacity="1.0"
     inkscape:showpageshadow="2"
     inkscape:pageopacity="0.0"
     inkscape:pagecheckerboard="0"
     inkscape:deskcolor="#d1d1d1"
     inkscape:document-units="pt"
     showgrid="false"
     inkscape:zoom="1.294835"
     inkscape:cx="254.85872"
     inkscape:cy="401.59556"
     inkscape:window-width="1440"
     inkscape:window-height="842"
     inkscape:window-x="0"
     inkscape:window-y="30"
     inkscape:window-maximized="1"
     inkscape:current-layer="svg18857" />
  <path
     d="m 178.8048,85.003575 c -16.79589,2.855533 -29.7894,-6.339933 -39.94988,3.240017 -7.36116,6.90861 -11.37091,29.276488 -14.68862,40.053908 -1.96989,6.44804 -2.17725,9.85629 -2.28093,26.25272 0,16.02797 0.41472,21.46275 2.903,35.92477 6.11702,36.84593 10.57519,52.50543 17.52165,63.09864 3.24052,18.30543 29.50479,32.77291 60.73265,42.84652 18.32861,-3.39613 41.30766,-15.73707 52.7374,-29.93682 10.9899,-9.85628 14.67642,-22.02908 19.34195,-41.92587 9.1237,-39.24089 11.92301,-76.08681 7.05013,-93.95708 -3.73242,-13.72511 -6.84791,-32.231292 -16.28264,-39.508352 -6.42806,-4.9742 -25.08503,-3.41715 -34.31241,-5.259418 -9.84945,-2.026526 -42.81917,-2.579214 -52.7723,-0.829035 z m -8.29427,42.925475 c 25.50489,9.984 38.77572,8.72199 64.2806,0 11.5083,-3.31613 15.75911,-3.50037 21.15039,-1.10537 13.78922,6.2638 19.69889,23.0287 19.80257,55.63733 0.10368,12.89607 -0.20736,15.75163 -2.17725,20.91005 -3.11035,8.47457 -7.56852,16.85702 -12.85611,24.41042 -4.76921,6.90861 -15.8628,17.04124 -18.55844,17.04124 -1.03678,0 -1.76253,-1.19749 -2.17724,-3.50037 -2.17725,-12.71183 -11.19727,-16.76489 -36.70215,-16.76489 -24.88281,0.0921 -34.21386,4.05306 -36.28743,15.47528 -0.41471,2.67135 -1.03678,5.06632 -1.34782,5.25056 -0.20736,0.27635 -2.69564,-0.82905 -5.49495,-2.4871 -9.22738,-5.43478 -21.04671,-22.56812 -27.06006,-39.2409 -2.69564,-7.64554 -2.79932,-8.014 -2.17725,-26.7133 0.62207,-20.26525 2.07357,-28.27923 6.32438,-36.56958 4.56185,-8.84301 13.06348,-15.10681 20.52832,-15.19893 1.55518,0 7.36117,1.28961 12.75244,2.85556 z m 55.67529,106.85316 c 4.97657,1.10538 6.32439,3.50035 5.80599,9.57994 -0.72574,8.01399 -5.80599,12.34338 -16.07015,13.7251 l -4.45817,0.5527 v -3.68461 -3.68458 h -8.29427 -8.39794 l 0.31103,3.40824 0.31104,3.50037 -4.66553,-0.27636 c -6.63542,-0.46057 -12.02669,-3.40824 -14.51497,-8.01398 -2.903,-5.25055 -2.69564,-10.13262 0.41471,-12.89607 2.28092,-2.02653 3.93978,-2.39497 15.13704,-3.59247 5.80599,-0.64481 30.17041,0.36845 34.42122,1.38172 z"
     id="path18839"
     style="stroke-width:0.0999995"
     sodipodi:nodetypes="cccccccccccccccccccsccccccccccccccccccccccscc" />
</svg>
