<?xml version="1.0" encoding="UTF-8" standalone="no"?>
<svg
   version="1.0"
   width="400pt"
   height="500pt"
   viewBox="0 0 400 500"
   preserveAspectRatio="xMidYMid"
   id="svg18857"
   sodipodi:docname="nuova_CAPELLI_lunghi.svg"
   inkscape:version="1.2.2 (b0a8486, 2022-12-01)"
   xmlns:inkscape="http://www.inkscape.org/namespaces/inkscape"
   xmlns:sodipodi="http://sodipodi.sourceforge.net/DTD/sodipodi-0.dtd"
   xmlns="http://www.w3.org/2000/svg"
   xmlns:svg="http://www.w3.org/2000/svg">
  <defs
     id="defs18861">
    <inkscape:path-effect
       effect="spiro"
       id="path-effect24900"
       is_visible="true"
       lpeversion="1" />
    <inkscape:path-effect
       effect="simplify"
       id="path-effect24898"
       is_visible="true"
       lpeversion="1"
       steps="1"
       threshold="0.000793651"
       smooth_angles="360"
       helper_size="0"
       simplify_individual_paths="false"
       simplify_just_coalesce="false" />
    <inkscape:path-effect
       effect="powerstroke"
       id="path-effect24604"
       is_visible="true"
       lpeversion="1"
       offset_points="0.12840122,12.274687"
       not_jump="true"
       sort_points="true"
       interpolator_type="CentripetalCatmullRom"
       interpolator_beta="0.75"
       start_linecap_type="round"
       linejoin_type="spiro"
       miter_limit="4"
       scale_width="1"
       end_linecap_type="round" />
    <inkscape:path-effect
       effect="simplify"
       id="path-effect24602"
       is_visible="true"
       lpeversion="1"
       steps="1"
       threshold="0.0036630037"
       smooth_angles="0"
       helper_size="0"
       simplify_individual_paths="false"
       simplify_just_coalesce="false"
       step="1" />
    <inkscape:path-effect
       effect="spiro"
       id="path-effect24599"
       is_visible="true"
       lpeversion="1" />
    <inkscape:path-effect
       effect="simplify"
       id="path-effect24597"
       is_visible="true"
       lpeversion="1"
       steps="1"
       threshold="0.000793651"
       smooth_angles="360"
       helper_size="0"
       simplify_individual_paths="false"
       simplify_just_coalesce="false" />
    <inkscape:path-effect
       effect="spiro"
       id="path-effect24593"
       is_visible="true"
       lpeversion="1" />
    <inkscape:path-effect
       effect="simplify"
       id="path-effect24591"
       is_visible="true"
       lpeversion="1"
       steps="1"
       threshold="0.000793651"
       smooth_angles="360"
       helper_size="0"
       simplify_individual_paths="false"
       simplify_just_coalesce="false" />
    <inkscape:path-effect
       effect="powerstroke"
       id="path-effect24585"
       is_visible="true"
       lpeversion="1"
       offset_points="0.28905561,12.274687"
       not_jump="true"
       sort_points="true"
       interpolator_type="CentripetalCatmullRom"
       interpolator_beta="0.75"
       start_linecap_type="round"
       linejoin_type="spiro"
       miter_limit="4"
       scale_width="1"
       end_linecap_type="round" />
    <inkscape:path-effect
       effect="simplify"
       id="path-effect24583"
       is_visible="true"
       lpeversion="1"
       steps="1"
       threshold="0.0036630037"
       smooth_angles="0"
       helper_size="0"
       simplify_individual_paths="false"
       simplify_just_coalesce="false"
       step="1" />
    <inkscape:path-effect
       effect="spiro"
       id="path-effect24580"
       is_visible="true"
       lpeversion="1" />
    <inkscape:path-effect
       effect="simplify"
       id="path-effect24578"
       is_visible="true"
       lpeversion="1"
       steps="1"
       threshold="0.000793651"
       smooth_angles="360"
       helper_size="0"
       simplify_individual_paths="false"
       simplify_just_coalesce="false" />
    <inkscape:path-effect
       effect="powerstroke"
       id="path-effect24572"
       is_visible="true"
       lpeversion="1"
       offset_points="0.2894665,12.274687"
       not_jump="true"
       sort_points="true"
       interpolator_type="CentripetalCatmullRom"
       interpolator_beta="0.75"
       start_linecap_type="round"
       linejoin_type="spiro"
       miter_limit="4"
       scale_width="1"
       end_linecap_type="round" />
    <inkscape:path-effect
       effect="simplify"
       id="path-effect24570"
       is_visible="true"
       lpeversion="1"
       steps="1"
       threshold="0.0036630037"
       smooth_angles="0"
       helper_size="0"
       simplify_individual_paths="false"
       simplify_just_coalesce="false"
       step="1" />
  </defs>
  <sodipodi:namedview
     id="namedview18859"
     pagecolor="#ffffff"
     bordercolor="#666666"
     borderopacity="1.0"
     inkscape:showpageshadow="2"
     inkscape:pageopacity="0.0"
     inkscape:pagecheckerboard="0"
     inkscape:deskcolor="#d1d1d1"
     inkscape:document-units="pt"
     showgrid="false"
     inkscape:zoom="0.99164605"
     inkscape:cx="162.35632"
     inkscape:cy="315.63681"
     inkscape:window-width="1440"
     inkscape:window-height="842"
     inkscape:window-x="0"
     inkscape:window-y="30"
     inkscape:window-maximized="1"
     inkscape:current-layer="svg18857" />
  <path
     d="m 199.31629,47.933189 c -5.4,0.9 -16.7,4.6 -21.3,7 -5.4,2.7 -6.4,2.5 -4.7,-0.7 1.7,-3.2 0.5,-3.6 -4.3,-1.3 -7.1,3.5 -16.2,10.8 -21.8,17.5 -2.9,3.50001 -7.3,7.50001 -9.9,9.00001 -8.6,4.9 -14.5,13.8 -17.7,26.500001 -2.7,10.7 -3.17127,30.38945 -0.27127,43.18945 -3.42054,-13.50123 4.58369,6.56552 -2.45818,27.83332 42.54371,-63.62383 67.57594,-25.40522 98.03743,-23.07319 -23.68378,-22.88945 -22.43252,-23.37239 -11.53253,-22.07239 -33.7782,11.38713 57.26703,24.63332 49.06703,17.13332 l -44.64249,-29.51051 53.70417,32.8672 c 2.03445,-16.34932 -23.99375,-22.42071 -2.72778,-10.76171 65.49803,50.18113 19.67154,11.14796 23.52361,-23.80549 1.60001,0.5 2,0.2 2,-1.8 0,-2.8 -7.7,-19.000001 -12.09999,-25.300001 l -3.10001,-4.5 4.10001,0.2 c 2.2,0.2 4.39999,0 4.79999,-0.4 0.90001,-1 -8.7,-10 -16.09999,-15.00001 -14.70001,-9.9 -31.60001,-15.4 -50.40001,-16.4 l -11.3,-0.6 2.20001,-2.3 c 1.89999,-2 1.89999,-4.6 0.1,-4.3 -0.4,0.1 -1.8,0.4 -3.19999,0.6 z"
     id="path18837"
     sodipodi:nodetypes="ccscccccccccccccsccccccccccc"
     style="stroke-width:0.1" />
  <path
     style="fill:#000000;stroke-width:0.25;stroke:#fafafa;stroke-opacity:1;stroke-dasharray:none"
     d="m 277.50441,413.7817 c -0.77789,-0.81683 -2.97244,-4.28058 -4.8768,-7.69729 -2.98994,-5.36446 -3.46246,-7.01677 -3.46246,-12.10744 0,-3.86818 0.49828,-6.57672 1.44916,-7.87739 1.35802,-1.8575 1.24624,-2.29547 -1.77689,-6.96245 -1.77433,-2.73914 -3.75555,-7.33982 -4.4027,-10.22372 -1.18808,-5.29444 -0.66666,-11.28381 0.98237,-11.28381 0.49205,0 2.80482,1.30678 5.13947,2.90395 4.91481,3.36228 7.86782,4.39258 9.19099,3.2067 0.61647,-0.55251 -1.43028,-2.25614 -6.0057,-4.9989 -5.46603,-3.27658 -7.54375,-5.14245 -9.77796,-8.78096 -2.62885,-4.2812 -2.83465,-5.24225 -2.80448,-13.09577 0.0273,-7.11426 0.38583,-9.1221 2.23194,-12.50138 1.20964,-2.21422 2.49689,-4.02586 2.86054,-4.02586 0.36363,0 2.89589,1.93049 5.62724,4.28997 3.36698,2.90859 5.60893,4.20493 6.96247,4.02587 3.09715,-0.40973 2.99248,-2.03808 -0.20732,-3.22596 -3.30853,-1.22824 -13.32917,-11.25986 -16.08692,-16.10454 -2.91677,-5.12408 -3.79581,-10.04041 -2.8582,-15.98541 0.46284,-2.93464 1.52361,-6.26867 2.35728,-7.40897 l 1.51574,-2.07329 3.10319,2.12132 c 4.20013,2.87116 15.6504,7.45133 17.25151,6.90068 2.22736,-0.76603 0.33725,-2.99627 -3.27891,-3.86896 -1.90499,-0.45974 -5.58485,-2.02392 -8.17749,-3.47596 -5.79461,-3.24537 -17.48824,-13.4106 -17.45952,-15.17752 0.0116,-0.71172 0.85322,-2.24755 1.87033,-3.41292 1.01711,-1.16539 3.03756,-2.73415 3.0607,-3.20031 0.0232,-0.46615 -0.29509,-1.56717 0.72202,-2.73255 6.4073,-6.9113 8.33884,-21.40185 13.16311,-13.14774 2.63534,4.79767 3.04971,6.43126 3.01788,11.89716 -0.0279,4.78711 0.27686,6.33589 1.24669,6.33589 1.83546,0 2.43293,-1.95068 2.4224,-7.90917 -0.01,-5.65998 -2.75154,-12.21048 -7.0076,-16.74367 -2.89911,-2.41154 -1.92377,-3.256 -0.56149,-6.47238 0.943,-2.22649 1.97902,-3.96723 2.30226,-3.86833 1.70221,0.52081 3.33186,1.91429 6.72807,5.75305 2.06208,2.33075 3.9627,4.42844 4.22358,4.66153 0.94023,0.83998 2.79313,4.74849 4.35018,9.1763 1.20519,3.42716 1.44076,6.07216 0.9779,10.97962 -0.33536,3.55567 -1.03338,6.84452 -1.55115,7.30856 -1.60912,1.44215 -1.03874,3.79865 1.24393,5.1391 2.87344,1.68739 5.81822,6.59379 7.23752,12.05874 1.8072,6.95847 -0.52137,12.91771 -7.38668,18.90398 -2.94032,2.56384 -6.62271,5.4753 -8.18308,6.4699 -1.56037,0.99459 -2.5377,2.08924 -2.17183,2.43255 1.28426,1.20502 5.48984,-0.48661 10.7426,-4.32109 2.91682,-2.12925 5.42208,-3.74508 5.56721,-3.59071 1.59381,1.69523 2.41143,4.94217 2.41143,9.57618 0,7.13838 -2.91733,12.58567 -9.16524,17.11343 -2.47066,1.79043 -5.26068,3.82744 -6.20007,4.52667 -0.93938,0.69922 -3.24041,2.04227 -5.11339,2.98453 -3.55404,1.78798 -4.26198,3.18525 -1.84315,3.63778 1.55815,0.2915 10.64416,-4.64643 14.60257,-7.936 1.37429,-1.14208 2.75392,-2.07652 3.06584,-2.07652 1.09525,0 2.76207,4.34751 2.76207,7.20419 0,7.98599 -11.36443,23.70014 -20.23681,27.98242 -3.77049,1.81984 -5.00208,3.62998 -2.94999,4.33573 1.6645,0.57244 6.09394,-2.0589 11.9747,-7.1137 l 4.39163,-3.77477 0.63724,3.38038 c 0.35048,1.85925 0.33115,4.8427 -0.0429,6.62991 -0.60232,2.87749 -4.85644,10.92647 -7.19856,13.61999 -0.53724,0.61786 -0.13237,2.9698 1.08187,6.28471 1.44222,3.93734 1.94038,7.51101 1.94038,13.91933 v 8.62184 l -4.10716,0.13922 c -2.88758,0.0979 -4.52713,-0.30174 -5.52151,-1.34574 z"
     id="path1823"
     sodipodi:nodetypes="sssssssssssssssssssscsssssssccsssccsssssssssssssssssssssssscssssscsss" />
</svg>
