<?xml version="1.0" encoding="UTF-8" standalone="no"?>
<!-- Created with Inkscape (http://www.inkscape.org/) -->

<svg
   version="1.1"
   id="svg1259"
   width="1440"
   height="1440"
   viewBox="0 0 1440 1440"
   sodipodi:docname="treccia.svg"
   inkscape:version="1.2.2 (b0a8486, 2022-12-01)"
   xmlns:inkscape="http://www.inkscape.org/namespaces/inkscape"
   xmlns:sodipodi="http://sodipodi.sourceforge.net/DTD/sodipodi-0.dtd"
   xmlns="http://www.w3.org/2000/svg"
   xmlns:svg="http://www.w3.org/2000/svg">
  <defs
     id="defs1263">
    <inkscape:path-effect
       effect="powerstroke"
       id="path-effect2337465"
       is_visible="true"
       lpeversion="1"
       offset_points="0.6010887,23.412636"
       not_jump="true"
       sort_points="true"
       interpolator_type="CentripetalCatmullRom"
       interpolator_beta="0.75"
       start_linecap_type="round"
       linejoin_type="spiro"
       miter_limit="4"
       scale_width="1"
       end_linecap_type="round" />
    <inkscape:path-effect
       effect="simplify"
       id="path-effect2337463"
       is_visible="true"
       lpeversion="1"
       steps="1"
       threshold="0.0036630037"
       smooth_angles="0"
       helper_size="0"
       simplify_individual_paths="false"
       simplify_just_coalesce="false"
       step="1" />
    <inkscape:path-effect
       effect="powerstroke"
       id="path-effect2337323"
       is_visible="true"
       lpeversion="1"
       offset_points="0.76771803,49.376522"
       not_jump="true"
       sort_points="true"
       interpolator_type="CentripetalCatmullRom"
       interpolator_beta="0.75"
       start_linecap_type="round"
       linejoin_type="spiro"
       miter_limit="4"
       scale_width="1"
       end_linecap_type="round" />
    <inkscape:path-effect
       effect="simplify"
       id="path-effect2337321"
       is_visible="true"
       lpeversion="1"
       steps="1"
       threshold="0.0036630037"
       smooth_angles="0"
       helper_size="0"
       simplify_individual_paths="false"
       simplify_just_coalesce="false"
       step="1" />
    <inkscape:path-effect
       effect="spiro"
       id="path-effect2337318"
       is_visible="true"
       lpeversion="1" />
    <inkscape:path-effect
       effect="simplify"
       id="path-effect2337316"
       is_visible="true"
       lpeversion="1"
       steps="1"
       threshold="0.000793651"
       smooth_angles="360"
       helper_size="0"
       simplify_individual_paths="false"
       simplify_just_coalesce="false" />
    <inkscape:path-effect
       effect="powerstroke"
       id="path-effect2337310"
       is_visible="true"
       lpeversion="1"
       offset_points="0.51822718,62.057511"
       not_jump="true"
       sort_points="true"
       interpolator_type="CentripetalCatmullRom"
       interpolator_beta="0.75"
       start_linecap_type="round"
       linejoin_type="spiro"
       miter_limit="4"
       scale_width="1"
       end_linecap_type="round" />
    <inkscape:path-effect
       effect="simplify"
       id="path-effect2337308"
       is_visible="true"
       lpeversion="1"
       steps="1"
       threshold="0.0036630037"
       smooth_angles="0"
       helper_size="0"
       simplify_individual_paths="false"
       simplify_just_coalesce="false"
       step="1" />
  </defs>
  <sodipodi:namedview
     id="namedview1261"
     pagecolor="#ffffff"
     bordercolor="#666666"
     borderopacity="1.0"
     inkscape:showpageshadow="2"
     inkscape:pageopacity="0.0"
     inkscape:pagecheckerboard="0"
     inkscape:deskcolor="#d1d1d1"
     showgrid="false"
     inkscape:zoom="1.1861209"
     inkscape:cx="760.88366"
     inkscape:cy="410.5821"
     inkscape:window-width="1440"
     inkscape:window-height="842"
     inkscape:window-x="0"
     inkscape:window-y="30"
     inkscape:window-maximized="1"
     inkscape:current-layer="g1265" />
  <g
     inkscape:groupmode="layer"
     inkscape:label="Image"
     id="g1265">
    <path
       style="fill:#000000;stroke-width:1"
       d="m 873.87345,1174.5453 c -1.86903,-1.9626 -7.14185,-10.2849 -11.71743,-18.4942 -7.18388,-12.8891 -8.31922,-16.8591 -8.31922,-29.0904 0,-9.294 1.19722,-15.8018 3.48192,-18.9269 3.26287,-4.463 2.99431,-5.5153 -4.26933,-16.7286 -4.26316,-6.5813 -9.02342,-17.6353 -10.57834,-24.5644 -2.85459,-12.7209 -1.60177,-27.1115 2.36034,-27.1115 1.18226,0 6.73912,3.1398 12.34856,6.9773 11.80874,8.0785 18.90393,10.554 22.08306,7.7047 1.48123,-1.3275 -3.43652,-5.4208 -14.42982,-12.0108 -13.13317,-7.8726 -18.12527,-12.3557 -23.49336,-21.0979 -6.31632,-10.2864 -6.81079,-12.5955 -6.73828,-31.46506 0.0656,-17.09336 0.92698,-21.91755 5.36263,-30.03691 2.90639,-5.32009 5.99923,-9.67289 6.87296,-9.67289 0.87371,0 6.95794,4.63835 13.52052,10.30746 8.08981,6.98842 13.47652,10.10313 16.72867,9.67291 7.44146,-0.98444 7.19,-4.89689 -0.49813,-7.75098 -7.94939,-2.95106 -32.02587,-27.05393 -38.65187,-38.6942 -7.00809,-12.31155 -9.12016,-24.12397 -6.86736,-38.40794 1.11205,-7.05101 3.66075,-15.06166 5.66379,-17.80146 l 3.64187,-4.98146 7.45599,5.09687 c 10.0916,6.8985 37.60303,17.90322 41.45,16.58018 5.35165,-1.84053 0.81031,-7.19911 -7.87821,-9.29591 -4.57708,-1.10459 -13.41865,-4.86283 -19.64794,-8.35163 -13.92264,-7.7976 -42.0188,-32.22149 -41.94979,-36.46684 0.0278,-1.71006 2.05001,-5.40017 4.49382,-8.20021 2.44381,-2.80005 4.48877,-6.00738 4.54436,-7.12741 0.0557,-1.12001 2.10053,-4.32734 4.54434,-7.12739 2.44383,-2.80006 4.46604,-6.16956 4.49384,-7.48778 0.0278,-1.31823 3.6292,-9.34044 8.00315,-17.82712 4.37393,-8.48668 7.95261,-16.8551 7.95261,-18.59649 0,-5.45826 3.57662,-1.51551 11.17724,12.32147 6.33191,11.52731 7.32753,15.45232 7.25103,28.58517 -0.067,11.50193 0.66521,15.22315 2.99541,15.22315 4.41007,0 5.84556,-4.68685 5.82026,-19.00326 -0.024,-13.59916 -6.61108,-29.33797 -16.83708,-40.2298 l -5.46864,-5.82473 4.11955,-9.72639 c 2.26575,-5.34956 4.75497,-9.53201 5.53163,-9.29439 4.08987,1.25135 8.00541,4.59943 16.16548,13.82277 4.95452,5.60009 9.52111,10.64018 10.14792,11.2002 2.25907,2.01822 6.71101,11.40916 10.45213,22.04779 2.8957,8.2344 3.46169,14.58952 2.34957,26.38062 -0.80576,8.54316 -2.48287,16.44525 -3.72692,17.56019 -3.86622,3.46505 -2.49575,9.12696 2.98878,12.34766 6.90398,4.05426 13.97937,15.84282 17.38951,28.97338 4.34214,16.71904 -1.25267,31.03723 -17.74788,45.42037 -7.0647,6.1601 -15.91232,13.15543 -19.66141,15.54515 -3.74909,2.3897 -6.0973,5.0198 -5.21823,5.84467 3.08568,2.8953 13.1904,-1.16918 25.81112,-10.38222 7.00823,-5.11595 13.02757,-8.99827 13.37629,-8.62738 3.82941,4.07312 5.79391,11.87451 5.79391,23.00859 0,17.1513 -7.00945,30.23943 -22.02123,41.11822 -5.93621,4.30185 -12.63976,9.19615 -14.89683,10.87618 -2.25704,1.68003 -7.7857,4.90694 -12.28589,7.17091 -8.53924,4.29594 -10.24022,7.65314 -4.42852,8.74044 3.74376,0.7004 25.57461,-11.16393 35.08542,-19.06772 3.302,-2.74408 6.61683,-4.98925 7.36629,-4.98925 2.63152,0 6.6364,10.44573 6.6364,17.30942 0,19.18785 -27.3052,56.94405 -48.62276,67.23305 -9.05931,4.3725 -12.01846,8.7217 -7.08793,10.4174 3.99929,1.3754 14.64184,-4.9469 28.77149,-17.092 l 10.5517,-9.0696 1.53111,8.122 c 0.84208,4.4672 0.79564,11.6355 -0.1031,15.9296 -1.44716,6.9137 -11.6685,26.2529 -17.29587,32.7246 -1.29083,1.4845 -0.31805,7.1355 2.5994,15.1002 3.46518,9.4602 4.66213,18.0466 4.66213,33.4438 v 20.7156 l -9.86824,0.3345 c -6.93795,0.2352 -10.8773,-0.725 -13.26647,-3.2334 z"
       id="path1823" />
    <path
       d="m 525.2634,574.50694 c 7.65289,-2.36163 27.03198,-8.33655 45.45836,-14.28529 20.13898,-6.50164 43.6653,-14.39715 67.82729,-23.50844 26.24011,-9.89493 65.47093,-25.74433 105.97043,-48.24 0.6186,-0.3436 1.23127,-0.69776 1.83775,-1.06231 8.26233,-4.9665 19.02132,-11.47765 29.59038,-19.52121 7.32593,-5.57539 13.93803,-11.40223 19.92391,-17.66084 5.95123,-6.22239 10.29733,-11.84755 13.37025,-16.21417 a 62.057511,62.057511 90 0 0 -101.50078,-71.4292 c -0.42267,0.60062 -1.46865,2.36006 -6.9589,6.5384 -4.38055,3.33381 -9.63117,6.64802 -17.44407,11.35521 -32.55852,17.99598 -65.01264,31.21416 -88.58118,40.10168 -21.55144,8.1269 -42.98931,15.33745 -62.16613,21.52842 -17.54685,5.66476 -36.18226,11.41182 -43.92533,13.80127 a 62.057511,62.057511 90 0 0 36.59802,118.59648 z"
       id="path-1"
       inkscape:path-effect="#path-effect2337308;#path-effect2337310"
       inkscape:original-d="M 506.96439,515.2087 C 587.45331,491.18264 728.6969,443.19397 758.49138,398.30008"
       style="fill:#000000;fill-rule:nonzero;stroke:none;stroke-width:1px;stroke-linecap:butt;stroke-linejoin:miter;stroke-opacity:1"
       sodipodi:nodetypes="cc" />
    <path
       style="fill:#000000;stroke:none;stroke-opacity:1;stroke-linejoin:miter;stroke-linecap:butt;stroke-width:1px"
       d="m 542.82869,461.40439 234.09488,57.67555"
       id="path2337314"
       inkscape:path-effect="#path-effect2337316;#path-effect2337318"
       inkscape:original-d="m 542.82869,461.40439 234.09488,57.67555" />
    <path
       d="m 746.79384,437.7558 c 17.66485,17.02109 46.64141,41.62464 93.01127,66.9416 16.65639,9.09404 34.28452,17.60831 53.11703,25.78701 13.20753,5.73584 27.79196,11.6504 44.67209,18.02035 9.39,4.16206 19.90385,7.73636 31.66193,10.29895 12.44485,2.71227 25.23302,4.06392 38.37264,4.24943 l -9.86814,-1.13866 c 0.1549,0.0339 0.31142,0.0682 0.46842,0.10261 0.18797,0.0541 0.34681,0.0998 0.46865,0.1349 a 49.376522,49.376522 90 0 0 27.31697,-94.89968 c -0.3832,-0.1103 -1.1324,-0.32595 -2.0026,-0.57645 -1.0224,-0.29429 -2.054,-0.55546 -3.0933,-0.7831 -0.6427,-0.1408 -1.3507,-0.29589 -2.0277,-0.44416 -3.2425,-0.71026 -6.5491,-1.0918 -9.8681,-1.13866 -14.64191,-0.20672 -24.64161,-2.98705 -32.05349,-6.37589 -1.03625,-0.47379 -2.08861,-0.91158 -3.15515,-1.31256 -16.14776,-6.07101 -29.65112,-11.54746 -41.55466,-16.71699 -16.52214,-7.17533 -31.4408,-14.40803 -45.13145,-21.88284 -37.4195,-20.43025 -59.40159,-39.41921 -71.81329,-51.37858 a 49.376522,49.376522 90 0 0 -68.52112,71.11272 z"
       id="path-1-8"
       inkscape:path-effect="#path-effect2337321;#path-effect2337323"
       inkscape:original-d="m 781.0544,402.19944 c 45.62464,45.89809 125.91641,84.96843 199.80403,109.07696 8.94752,2.91945 20.89597,-0.0334 31.49777,3.42575"
       style="fill:#000000;fill-rule:nonzero;stroke:none;stroke-width:1px;stroke-linecap:butt;stroke-linejoin:miter;stroke-opacity:1"
       sodipodi:nodetypes="csc" />
    <path
       d="m 500.08246,489.42733 c 1.06109,-13.62732 1.95138,-39.61105 6.11897,-75.28924 0.54908,-4.70059 1.18241,-9.59692 1.92405,-14.59951 1.92076,-12.9562 5.21388,-31.28579 11.61213,-50.24822 13.1426,-14.61163 27.19282,-31.39513 42.56093,-48.44098 13.99984,-15.5282 29.44919,-31.49204 46.79109,-45.08177 0.13876,-0.10874 0.27628,-0.21904 0.41255,-0.33088 14.84053,-12.1805 31.95192,-21.69228 50.73661,-28.32628 18.21294,-6.43209 37.90352,-10.12742 58.28785,-10.95144 39.40404,-1.59288 80.33717,7.62323 115.15682,26.82177 21.40769,14.09406 42.24841,27.63793 61.1735,42.97685 18.5867,15.06467 34.15913,30.96326 45.69704,49.16562 6.85048,18.86355 14.5055,35.66703 20.27415,51.22739 6.61555,17.84478 10.59779,33.13418 11.30662,48.58919 0.0403,0.87873 0.1301,1.75456 0.26897,2.62319 0.61092,3.82156 1.57745,7.16433 2.36918,9.63656 0.73727,2.30215 1.88129,5.47494 2.25971,6.56852 0.66917,1.93378 0.97192,2.97313 1.14973,3.73952 0.20912,0.90133 0.1712,1.02615 0.17127,0.99787 a 23.412636,23.412636 90 0 0 46.82517,0.114 c 0.01,-3.76457 -0.4364,-7.61598 -1.3828,-11.69486 -0.7188,-3.09802 -1.6268,-5.90947 -2.5126,-8.46919 -0.7537,-2.17801 -1.4486,-4.07702 -1.9162,-5.53715 -0.2562,-0.80012 -0.4301,-1.41561 -0.5476,-1.89461 -1.2317,-21.51932 -6.8192,-41.34785 -14.0862,-60.94991 -6.80377,-18.35243 -14.80878,-35.86055 -20.93307,-53.06576 -0.54342,-1.52663 -1.24402,-2.99305 -2.09024,-4.37501 -15.33356,-25.04124 -35.58039,-45.39261 -57.36914,-63.05256 -21.33257,-17.29021 -44.63191,-32.35593 -65.65044,-46.19825 -0.48439,-0.31901 -0.98048,-0.61991 -1.48722,-0.90208 -42.78319,-23.82286 -92.60109,-35.04719 -140.56799,-33.10816 -24.78283,1.00183 -49.11463,5.50726 -71.9895,13.58575 -23.57237,8.32483 -45.42212,20.37962 -64.64467,36.11491 -20.42564,16.03657 -37.92346,34.27606 -52.48026,50.42203 -17.59735,19.51845 -32.42823,37.36393 -45.61419,51.81208 -1.03753,1.13686 -2.05227,2.30624 -2.84771,3.62389 -0.79544,1.31765 -1.35752,2.7603 -1.8802,4.20796 -8.93022,24.73407 -13.12778,48.39295 -15.37233,63.5332 -0.82377,5.5566 -1.51885,10.93813 -2.11406,16.03356 -4.52206,38.71278 -5.2689,63.92335 -6.29388,77.08698 a 23.412636,23.412636 90 0 0 46.68396,3.63502 z"
       id="path-1-84"
       inkscape:path-effect="#path-effect2337463;#path-effect2337465"
       inkscape:original-d="m 476.74048,487.60982 c 2.59879,-43.28707 7.01063,-105.86494 20.29096,-146.2724 3.24372,-9.8695 27.4909,-31.41018 56.19032,-64.58781 22.24253,-25.71322 29.90966,-31.65617 60.87286,-53.18996 56.637,-39.38899 151.60346,-37.90238 210.71372,-11.39785 22.9907,10.30883 27.92192,15.32 67.11622,41.79211 20.70215,13.98239 48.15965,42.7114 53.06865,47.49103 21.92225,21.34459 20.12175,39.54929 34.33853,68.3871 6.24208,12.66169 7.18608,11.13059 9.87768,25.87198 1.6524,9.04945 4.8701,29.38035 6.3134,38.16313 1.4237,8.66386 6.24338,15.92139 6.24338,24.69534"
       style="fill:#000000;fill-opacity:1;fill-rule:nonzero;stroke:none;stroke-width:0;stroke-linecap:butt;stroke-linejoin:miter;stroke-dasharray:none;stroke-opacity:1"
       sodipodi:nodetypes="csssssssssc" />
    <path
       style="fill:#000000;stroke:none;stroke-width:4.91339;stroke-linecap:round;stroke-linejoin:round;paint-order:stroke markers fill"
       d="m 1026.3056,539.60203 c -1.7024,-0.82753 -13.5409,-7.49472 -26.30786,-14.81601 C 929.17491,484.1723 881.40884,446.3221 842.96209,400.3497 c -10.62125,-12.70027 -13.4797,-17.01684 -16.83526,-25.42312 -5.97765,-14.97511 -19.54436,-33.77059 -29.94348,-41.484 -12.37755,-9.18087 -22.35548,-12.69418 -36.05027,-12.69352 -7.1562,3.5e-4 -14.01626,0.92784 -18.57017,2.51071 -15.73233,5.46834 -32.39111,20.88802 -42.11382,38.9813 -5.83185,10.85264 -9.68234,15.7228 -21.10022,26.68773 -28.3762,27.25056 -84.27009,63.89075 -146.2162,95.84928 -23.21611,11.97741 -73.99724,36.03904 -74.50986,35.30502 -0.52367,-0.7499 1.51581,-29.32153 3.42447,-47.97465 2.41312,-23.58257 6.18237,-42.3 11.94063,-59.29471 6.07711,-17.93578 9.37124,-23.05047 41.09043,-63.80007 70.88482,-91.06563 102.49489,-117.26062 158.20266,-131.10102 20.80504,-5.16895 33.88271,-6.66303 58.44931,-6.67758 39.53236,-0.0235 71.06733,7.3127 106.78631,24.84216 26.89642,13.19972 42.57774,24.72965 81.49456,59.9202 42.98697,38.87097 61.00773,60.49461 73.22951,87.87018 4.35837,9.76227 15.01831,40.2522 19.52951,55.85867 6.8168,23.58359 22.2729,92.73463 22.2729,99.65034 0,2.28153 -3.3096,2.37793 -7.7375,0.22541 z"
       id="path2337469" />
  </g>
</svg>
