<?xml version="1.0" encoding="UTF-8" standalone="no"?>
<svg
   version="1.0"
   width="400pt"
   height="500pt"
   viewBox="0 0 400 500"
   preserveAspectRatio="xMidYMid"
   id="svg18857"
   sodipodi:docname="nuova_CAPELLI_CORTI.svg"
   inkscape:version="1.2.2 (b0a8486, 2022-12-01)"
   xmlns:inkscape="http://www.inkscape.org/namespaces/inkscape"
   xmlns:sodipodi="http://sodipodi.sourceforge.net/DTD/sodipodi-0.dtd"
   xmlns="http://www.w3.org/2000/svg"
   xmlns:svg="http://www.w3.org/2000/svg">
  <defs
     id="defs18861">
    <inkscape:path-effect
       effect="spiro"
       id="path-effect24900"
       is_visible="true"
       lpeversion="1" />
    <inkscape:path-effect
       effect="simplify"
       id="path-effect24898"
       is_visible="true"
       lpeversion="1"
       steps="1"
       threshold="0.000793651"
       smooth_angles="360"
       helper_size="0"
       simplify_individual_paths="false"
       simplify_just_coalesce="false" />
    <inkscape:path-effect
       effect="powerstroke"
       id="path-effect24604"
       is_visible="true"
       lpeversion="1"
       offset_points="0.12840122,12.274687"
       not_jump="true"
       sort_points="true"
       interpolator_type="CentripetalCatmullRom"
       interpolator_beta="0.75"
       start_linecap_type="round"
       linejoin_type="spiro"
       miter_limit="4"
       scale_width="1"
       end_linecap_type="round" />
    <inkscape:path-effect
       effect="simplify"
       id="path-effect24602"
       is_visible="true"
       lpeversion="1"
       steps="1"
       threshold="0.0036630037"
       smooth_angles="0"
       helper_size="0"
       simplify_individual_paths="false"
       simplify_just_coalesce="false"
       step="1" />
    <inkscape:path-effect
       effect="spiro"
       id="path-effect24599"
       is_visible="true"
       lpeversion="1" />
    <inkscape:path-effect
       effect="simplify"
       id="path-effect24597"
       is_visible="true"
       lpeversion="1"
       steps="1"
       threshold="0.000793651"
       smooth_angles="360"
       helper_size="0"
       simplify_individual_paths="false"
       simplify_just_coalesce="false" />
    <inkscape:path-effect
       effect="spiro"
       id="path-effect24593"
       is_visible="true"
       lpeversion="1" />
    <inkscape:path-effect
       effect="simplify"
       id="path-effect24591"
       is_visible="true"
       lpeversion="1"
       steps="1"
       threshold="0.000793651"
       smooth_angles="360"
       helper_size="0"
       simplify_individual_paths="false"
       simplify_just_coalesce="false" />
    <inkscape:path-effect
       effect="powerstroke"
       id="path-effect24585"
       is_visible="true"
       lpeversion="1"
       offset_points="0.28905561,12.274687"
       not_jump="true"
       sort_points="true"
       interpolator_type="CentripetalCatmullRom"
       interpolator_beta="0.75"
       start_linecap_type="round"
       linejoin_type="spiro"
       miter_limit="4"
       scale_width="1"
       end_linecap_type="round" />
    <inkscape:path-effect
       effect="simplify"
       id="path-effect24583"
       is_visible="true"
       lpeversion="1"
       steps="1"
       threshold="0.0036630037"
       smooth_angles="0"
       helper_size="0"
       simplify_individual_paths="false"
       simplify_just_coalesce="false"
       step="1" />
    <inkscape:path-effect
       effect="spiro"
       id="path-effect24580"
       is_visible="true"
       lpeversion="1" />
    <inkscape:path-effect
       effect="simplify"
       id="path-effect24578"
       is_visible="true"
       lpeversion="1"
       steps="1"
       threshold="0.000793651"
       smooth_angles="360"
       helper_size="0"
       simplify_individual_paths="false"
       simplify_just_coalesce="false" />
    <inkscape:path-effect
       effect="powerstroke"
       id="path-effect24572"
       is_visible="true"
       lpeversion="1"
       offset_points="0.2894665,12.274687"
       not_jump="true"
       sort_points="true"
       interpolator_type="CentripetalCatmullRom"
       interpolator_beta="0.75"
       start_linecap_type="round"
       linejoin_type="spiro"
       miter_limit="4"
       scale_width="1"
       end_linecap_type="round" />
    <inkscape:path-effect
       effect="simplify"
       id="path-effect24570"
       is_visible="true"
       lpeversion="1"
       steps="1"
       threshold="0.0036630037"
       smooth_angles="0"
       helper_size="0"
       simplify_individual_paths="false"
       simplify_just_coalesce="false"
       step="1" />
  </defs>
  <sodipodi:namedview
     id="namedview18859"
     pagecolor="#ffffff"
     bordercolor="#666666"
     borderopacity="1.0"
     inkscape:showpageshadow="2"
     inkscape:pageopacity="0.0"
     inkscape:pagecheckerboard="0"
     inkscape:deskcolor="#d1d1d1"
     inkscape:document-units="pt"
     showgrid="false"
     inkscape:zoom="1.4046363"
     inkscape:cx="163.74345"
     inkscape:cy="406.51092"
     inkscape:window-width="1440"
     inkscape:window-height="842"
     inkscape:window-x="0"
     inkscape:window-y="30"
     inkscape:window-maximized="1"
     inkscape:current-layer="svg18857" />
  <path
     d="m 198.44588,46.513247 c -5.47509,0.925079 -13.21172,10.45207 -17.87567,12.918945 -5.4751,2.775233 -12.62495,-5.671579 -9.66702,-14.484732 1.93193,-5.756162 -10.04072,5.635356 -15.12623,12.161154 -3.34393,7.627543 -0.75721,11.368783 -6.43509,18.255473 -2.94031,3.597535 -7.4015,7.708988 -10.03766,9.250785 -8.7196,5.03653 -14.70164,14.184534 -17.94615,27.238408 -2.73755,10.99815 -2.53478,47.79569 0.40555,60.95235 2.23061,10.27864 6.08346,21.58515 7.30015,21.58515 0.40556,0 1.21668,-6.7839 1.92641,-15.00682 3.14312,-35.87246 7.80708,-49.44027 18.85866,-54.88795 6.08343,-2.87802 10.54462,-2.36409 24.23237,3.18638 13.99191,5.65325 33.63047,20.90056 44.68204,22.23678 -14.4192,-24.4205 5.70912,-11.64978 -2.60492,-19.35876 l -5.37371,-4.83096 3.54868,0.82229 c 1.92641,0.41114 10.24046,10.88437 18.45308,13.35124 17.64198,5.24212 35.88807,18.73236 30.2102,11.53731 -1.82503,-2.46688 -19.96973,-26.94428 -20.47668,-27.66379 -1.11531,-1.439 6.28622,0.1028 10.24045,2.15852 3.75146,2.05573 9.63211,8.63406 12.06548,13.46503 4.15702,8.53126 7.50293,25.28546 8.92238,44.91766 0.40558,5.55047 1.11531,10.07307 1.62226,10.07307 1.31807,0 4.35979,-7.81177 6.18482,-15.93189 2.83895,-12.74552 4.05563,-28.0607 3.44729,-41.93687 -0.60834,-12.74552 -0.60834,-13.15666 1.31807,-12.53994 1.62226,0.51393 2.02782,0.20557 2.02782,-1.85016 0,-2.87802 -7.80708,-19.52942 -12.26827,-26.004974 l -3.1431,-4.62538 4.15701,0.20557 c 2.23059,0.20557 -1.093,-5.476582 13.2217,-5.250673 0.91251,-1.02786 -14.71335,-10.056461 -24.67885,-10.578444 C 250.73252,65.702163 233.59751,60.04891 214.53605,59.021046 l -11.45713,-0.616719 2.2306,-2.364088 c 1.92642,-2.055728 0.78164,-8.090963 3.03489,-12.934108 -0.40557,0.102787 -7.54893,0.840438 -9.89853,3.407116 z"
     id="path18837"
     style="stroke-width:0.1"
     sodipodi:nodetypes="ccscccccscccccccccccccscccscccccccccc" />
</svg>
