<?xml version="1.0" encoding="UTF-8" standalone="no"?>
<svg
   version="1.0"
   width="400pt"
   height="500pt"
   viewBox="0 0 400 500"
   preserveAspectRatio="xMidYMid"
   id="svg18857"
   sodipodi:docname="nuova_CASCO.svg"
   inkscape:version="1.2.2 (b0a8486, 2022-12-01)"
   xmlns:inkscape="http://www.inkscape.org/namespaces/inkscape"
   xmlns:sodipodi="http://sodipodi.sourceforge.net/DTD/sodipodi-0.dtd"
   xmlns="http://www.w3.org/2000/svg"
   xmlns:svg="http://www.w3.org/2000/svg">
  <defs
     id="defs18861">
    <inkscape:path-effect
       effect="spiro"
       id="path-effect24900"
       is_visible="true"
       lpeversion="1" />
    <inkscape:path-effect
       effect="simplify"
       id="path-effect24898"
       is_visible="true"
       lpeversion="1"
       steps="1"
       threshold="0.000793651"
       smooth_angles="360"
       helper_size="0"
       simplify_individual_paths="false"
       simplify_just_coalesce="false" />
    <inkscape:path-effect
       effect="powerstroke"
       id="path-effect24604"
       is_visible="true"
       lpeversion="1"
       offset_points="0.12840122,12.274687"
       not_jump="true"
       sort_points="true"
       interpolator_type="CentripetalCatmullRom"
       interpolator_beta="0.75"
       start_linecap_type="round"
       linejoin_type="spiro"
       miter_limit="4"
       scale_width="1"
       end_linecap_type="round" />
    <inkscape:path-effect
       effect="simplify"
       id="path-effect24602"
       is_visible="true"
       lpeversion="1"
       steps="1"
       threshold="0.0036630037"
       smooth_angles="0"
       helper_size="0"
       simplify_individual_paths="false"
       simplify_just_coalesce="false"
       step="1" />
    <inkscape:path-effect
       effect="spiro"
       id="path-effect24599"
       is_visible="true"
       lpeversion="1" />
    <inkscape:path-effect
       effect="simplify"
       id="path-effect24597"
       is_visible="true"
       lpeversion="1"
       steps="1"
       threshold="0.000793651"
       smooth_angles="360"
       helper_size="0"
       simplify_individual_paths="false"
       simplify_just_coalesce="false" />
    <inkscape:path-effect
       effect="spiro"
       id="path-effect24593"
       is_visible="true"
       lpeversion="1" />
    <inkscape:path-effect
       effect="simplify"
       id="path-effect24591"
       is_visible="true"
       lpeversion="1"
       steps="1"
       threshold="0.000793651"
       smooth_angles="360"
       helper_size="0"
       simplify_individual_paths="false"
       simplify_just_coalesce="false" />
    <inkscape:path-effect
       effect="powerstroke"
       id="path-effect24585"
       is_visible="true"
       lpeversion="1"
       offset_points="0.28905561,12.274687"
       not_jump="true"
       sort_points="true"
       interpolator_type="CentripetalCatmullRom"
       interpolator_beta="0.75"
       start_linecap_type="round"
       linejoin_type="spiro"
       miter_limit="4"
       scale_width="1"
       end_linecap_type="round" />
    <inkscape:path-effect
       effect="simplify"
       id="path-effect24583"
       is_visible="true"
       lpeversion="1"
       steps="1"
       threshold="0.0036630037"
       smooth_angles="0"
       helper_size="0"
       simplify_individual_paths="false"
       simplify_just_coalesce="false"
       step="1" />
    <inkscape:path-effect
       effect="spiro"
       id="path-effect24580"
       is_visible="true"
       lpeversion="1" />
    <inkscape:path-effect
       effect="simplify"
       id="path-effect24578"
       is_visible="true"
       lpeversion="1"
       steps="1"
       threshold="0.000793651"
       smooth_angles="360"
       helper_size="0"
       simplify_individual_paths="false"
       simplify_just_coalesce="false" />
    <inkscape:path-effect
       effect="powerstroke"
       id="path-effect24572"
       is_visible="true"
       lpeversion="1"
       offset_points="0.2894665,12.274687"
       not_jump="true"
       sort_points="true"
       interpolator_type="CentripetalCatmullRom"
       interpolator_beta="0.75"
       start_linecap_type="round"
       linejoin_type="spiro"
       miter_limit="4"
       scale_width="1"
       end_linecap_type="round" />
    <inkscape:path-effect
       effect="simplify"
       id="path-effect24570"
       is_visible="true"
       lpeversion="1"
       steps="1"
       threshold="0.0036630037"
       smooth_angles="0"
       helper_size="0"
       simplify_individual_paths="false"
       simplify_just_coalesce="false"
       step="1" />
  </defs>
  <sodipodi:namedview
     id="namedview18859"
     pagecolor="#ffffff"
     bordercolor="#666666"
     borderopacity="1.0"
     inkscape:showpageshadow="2"
     inkscape:pageopacity="0.0"
     inkscape:pagecheckerboard="0"
     inkscape:deskcolor="#d1d1d1"
     inkscape:document-units="pt"
     showgrid="false"
     inkscape:zoom="1.0175978"
     inkscape:cx="208.33378"
     inkscape:cy="324.29315"
     inkscape:window-width="1440"
     inkscape:window-height="842"
     inkscape:window-x="0"
     inkscape:window-y="30"
     inkscape:window-maximized="1"
     inkscape:current-layer="g18855" />
  <g
     transform="matrix(0.1,0,0,-0.1,0,1067)"
     fill="#000000"
     stroke="none"
     id="g18855">
    <path
       style="fill:#000000;stroke:none;stroke-opacity:1;stroke-linejoin:miter;stroke-linecap:butt;stroke-width:1px"
       d="M 452.79956,382.97023 389.51673,584.82064"
       id="path24576"
       inkscape:path-effect="#path-effect24578;#path-effect24580"
       inkscape:original-d="M 452.79956,382.97023 389.51673,584.82064" />
    <path
       style="fill:#000000;stroke:none;stroke-opacity:1;stroke-linejoin:miter;stroke-linecap:butt;stroke-width:1px"
       d="m 529.17539,508.44481 -130.92999,78.558"
       id="path24589"
       inkscape:path-effect="#path-effect24591;#path-effect24593"
       inkscape:original-d="m 529.17539,508.44481 -130.92999,78.558" />
    <path
       style="fill:#000000;stroke:none;stroke-opacity:1;stroke-linejoin:miter;stroke-linecap:butt;stroke-width:1px"
       d="m 90.559913,521.53781 -1.091084,-7.63758"
       id="path24595"
       inkscape:path-effect="#path-effect24597;#path-effect24599"
       inkscape:original-d="m 90.559913,521.53781 -1.091084,-7.63758" />
    <path
       style="fill:#000000;stroke:none;stroke-opacity:1;stroke-linejoin:miter;stroke-linecap:butt;stroke-width:1px"
       d="M 584.82064,497.53398 -1.0910833,209.48799"
       id="path24896"
       inkscape:path-effect="#path-effect24898;#path-effect24900"
       inkscape:original-d="M 584.82064,497.53398 -1.0910833,209.48799" />
    <path
       d="m 1782.3385,10202.939 c -39,-19 -68,-40 -74,-55 -8,-16 -25,-28 -52,-35 -129,-35 -140,-37 -157,-26 -25,16 -46,3 -149,-90.9999 -73,-68 -90,-88.9998 -90,-111.9998 0,-16 5,-32 10,-35 18,-11 -48,-85 -76,-85 -21,0 -31,-12 -66,-85 -55,-116 -77,-244 -59,-353 15,-91 45,-151 86,-172 17,-8 31,-18 33,-21 4,-8 38,-1 77,16 17,7 56,25 88,39 123,54 297,91 387,83 27,-3 50,-1 50,4 0,5 12,9 26,9 14,0 23,-3 21,-7 -3,-5 80,-9 184,-10 137,-1 189,2 189,10 0,7 5,5 10,-3 5,-8 10,-10 10,-3 0,7 12,9 33,7 17,-2 39,-4 47,-5 46,-2 187,-21 200,-26 8,-4 24,-8 36,-9 27,-3 187,-65 194,-74 3,-4 31,-13 63,-20 51,-10 61,-9 90,7 104,59 126,327 41,508 -34,75 -66,116 -84,110 -24,-8 -83,65 -69,86 21,33 7,56 -87,145.9997 l -95,91 h -67 c -91,-1 -165,23 -205,65 -33,35 -127,77 -172,77 -13,0 -28,-8 -34,-17 -7,-14 -26,-18 -86,-21 -66,-4 -81,-1 -106,17 -38,28 -72,26 -147,-10 z m -173.4778,-527.7869 c 96.2466,-78.3695 212.1081,-217.9396 279.5394,-314.187 -21,-21 -359.0616,228.9742 -365.0616,252.9742 -3,11 -50.5197,-3.7118 -41.7118,8.1441 11.3307,15.2517 -26.952,20 -62.3997,47.096 6,23 -180.4304,122.1836 -168.4304,122.1836 0,0 357.0641,-100.2109 358.0641,-116.2109 z m 974.7332,-86.0677 c -132.9469,-73.4498 -240.5403,-234.0164 -233.6945,-197.5756 14.9854,107.6177 112.9991,204.402 171.389,307.9773 469.6782,233.1756 261.1087,116.1902 62.3055,-110.4017 z"
       id="path18845"
       style="fill:#000000;stroke:#000000;stroke-width:30;stroke-dasharray:none;stroke-opacity:1;fill-opacity:1"
       sodipodi:nodetypes="cccccscscccccccssccsssccccccccscccccscccccccsccccccc" />
  </g>
</svg>
