<?xml version="1.0" encoding="UTF-8" standalone="no"?>
<!-- Created with Inkscape (http://www.inkscape.org/) -->

<svg
   version="1.1"
   id="svg2349039"
   width="445.33334"
   height="456"
   viewBox="0 0 445.33334 456"
   sodipodi:docname="casco_new.svg"
   inkscape:version="1.2.2 (b0a8486, 2022-12-01)"
   xmlns:inkscape="http://www.inkscape.org/namespaces/inkscape"
   xmlns:sodipodi="http://sodipodi.sourceforge.net/DTD/sodipodi-0.dtd"
   xmlns="http://www.w3.org/2000/svg"
   xmlns:svg="http://www.w3.org/2000/svg">
  <defs
     id="defs2349043" />
  <sodipodi:namedview
     id="namedview2349041"
     pagecolor="#ffffff"
     bordercolor="#666666"
     borderopacity="1.0"
     inkscape:showpageshadow="2"
     inkscape:pageopacity="0.0"
     inkscape:pagecheckerboard="0"
     inkscape:deskcolor="#d1d1d1"
     showgrid="false"
     inkscape:zoom="1.2179413"
     inkscape:cx="198.69594"
     inkscape:cy="178.1695"
     inkscape:window-width="1440"
     inkscape:window-height="842"
     inkscape:window-x="324"
     inkscape:window-y="41"
     inkscape:window-maximized="0"
     inkscape:current-layer="g2349045" />
  <g
     inkscape:groupmode="layer"
     inkscape:label="Image"
     id="g2349045">
    <path
       style="fill:#000000;stroke:none;stroke-width:1"
       d="m 142.05643,99.27641 c -8.53535,-0.249818 -15.61319,-0.51633 -15.72853,-0.592239 -0.53395,-0.351373 -0.0955,-5.047245 1.12717,-12.072903 3.05319,-17.543726 14.08653,-38.176133 26.94229,-50.382262 7.62273,-7.237536 22.08845,-14.885407 34.30131,-18.134731 8.06387,-2.145468 22.21187,-4.046756 30.11293,-4.046756 17.91352,0 36.80623,4.795712 50.83576,12.904124 5.36482,3.1006 13.33659,9.181974 13.33659,10.173965 0,0.36628 1.60433,2.045218 3.56515,3.73097 7.00434,6.021775 15.63364,20.653606 20.33827,34.48559 2.85771,8.401866 5.04981,22.528768 3.61624,23.304915 -0.60265,0.326286 -7.51297,0.665693 -15.35626,0.754227 -19.23738,0.217187 -18.00448,0.279534 -29.35992,-1.484993 -30.35541,-4.716941 -62.36527,-4.766666 -93.53223,-0.145266 -13.71799,2.03407 -13.13278,2.004896 -30.19877,1.505359 z m 23.0685,-1.902511 c 1.84546,-0.250485 3.76763,-0.730873 4.27145,-1.067537 0.50382,-0.336672 1.119,-0.438872 1.36706,-0.227116 0.24806,0.211757 4.1769,-0.133289 8.73078,-0.766774 8.16329,-1.135583 9.6717,-1.278578 22.12087,-2.097224 21.45713,-1.411012 57.51723,0.845069 73.74046,4.613528 1.5715,0.365036 3.12306,0.523486 3.4479,0.352095 0.32486,-0.171391 7.25072,-0.35306 15.39083,-0.403729 8.14008,-0.05071 14.94522,-0.301155 15.12251,-0.556658 0.17727,-0.255485 -0.11539,-2.720217 -0.65035,-5.477168 l -0.97264,-5.012632 -18.22889,-0.358047 c -11.17013,-0.219404 -18.28304,-0.635336 -18.36873,-1.074136 -0.0768,-0.393848 3.03825,-1.892905 6.92256,-3.331237 3.88429,-1.43832 7.95156,-2.954711 9.03836,-3.369735 1.08679,-0.415029 5.29617,-1.929384 9.35415,-3.365235 7.13554,-2.524798 7.35709,-2.673 6.73755,-4.507254 -2.22679,-6.592689 -10.30525,-20.499626 -14.92338,-25.690354 l -2.05611,-2.311029 -16.66562,9.650956 c -9.16609,5.308029 -16.88854,9.650958 -17.161,9.650958 -1.47942,0 2.00035,-2.249408 16.20336,-10.474265 8.63291,-4.999254 15.86217,-9.206469 16.06502,-9.349373 0.20283,-0.142907 -0.45776,-0.754054 -1.468,-1.358099 -1.01025,-0.604051 -1.83681,-1.515363 -1.83681,-2.025137 0,-0.509779 -1.87213,-2.399018 -4.1603,-4.198312 l -4.16028,-3.27143 -1.99135,2.985748 c -6.21734,9.322006 -17.06378,24.000959 -18.8737,25.542597 l -2.10178,1.790223 1.71913,-2.506312 c 0.94555,-1.378475 5.90359,-8.306649 11.01791,-15.395945 l 9.29878,-12.889624 -2.71417,-2.021973 c -6.07837,-4.528162 -28.08735,-11.954486 -35.37952,-11.937843 -1.54727,0.0038 -2.3319,1.910714 -7.51257,18.260304 -3.18167,10.040998 -5.96044,18.256356 -6.17506,18.256356 -0.69188,0 0.62511,-4.766863 5.69047,-20.596401 3.72416,-11.638193 4.70676,-15.646017 3.93818,-16.062894 -0.56329,-0.305505 -5.29628,-0.560404 -10.51779,-0.566434 -8.65956,-0.01 -9.45349,0.09913 -9.03679,1.242194 1.91471,5.252355 8.27446,29.964875 8.5232,33.119177 0.39453,5.003371 0.19052,4.364771 -5.60461,-17.544214 -2.39608,-9.058543 -4.46317,-16.583301 -4.59351,-16.721688 -0.50058,-0.531407 -12.81654,1.571654 -19.22079,3.282116 -11.66138,3.114564 -24.4765,9.350322 -23.53234,11.450687 0.27089,0.602628 5.79336,7.494048 12.27218,15.314269 8.17301,9.865179 11.57171,14.529197 11.10049,15.233079 -0.5299,0.791513 -4.82759,-1.169262 -19.55341,-8.92107 l -18.87423,-9.93555 -1.81049,1.881325 c -4.52739,4.704554 -15.38601,23.806087 -15.38601,27.065732 0,0.522891 7.73385,3.606862 17.98275,7.170843 13.2368,4.603009 17.74684,6.468958 17.08873,7.070206 -0.61893,0.565479 -6.77625,0.816821 -20.01018,0.816821 -10.51386,0 -19.30519,0.161457 -19.53624,0.358781 -0.23106,0.197336 -0.54556,2.614141 -0.69889,5.370679 l -0.27874,5.01189 15.0994,0.395798 c 8.30464,0.217684 15.85432,0.298069 16.77706,0.178637 0.92274,-0.119422 3.18764,-0.422093 5.03314,-0.67257 z m -14.0323,-17.398533 c -9.10186,-3.119708 -16.89009,-5.852238 -17.30718,-6.072281 -0.41709,-0.220047 -1.38555,1.770541 -2.15215,4.423526 -0.76661,2.652997 -1.59158,5.387541 -1.83328,6.076781 -0.40958,1.167918 0.86245,1.252849 18.701,1.24866 l 19.14047,-0.0042 -16.54886,-5.672196 z m 156.23003,5.144115 c 0.0445,-2.002855 -3.12589,-10.919033 -3.88268,-10.919634 -0.51412,-4.09e-4 -7.1201,2.288418 -14.67994,5.086278 -7.55987,2.797866 -14.68891,5.348088 -15.84233,5.667171 -1.21701,0.336671 5.56002,0.605984 16.14795,0.641704 10.03478,0.03389 18.25044,-0.180133 18.257,-0.475519 z M 186.29504,58.266096 c -1.56728,-1.673862 -7.1395,-8.279795 -12.38269,-14.679848 -5.2432,-6.40006 -9.91532,-11.63647 -10.38246,-11.63647 -1.29043,0 -11.6707,9.322567 -11.01078,9.88884 0.6061,0.520097 35.90056,19.392736 36.35962,19.442211 0.14623,0.01574 -1.01643,-1.34087 -2.58369,-3.014733 z"
       id="path2346624" />
    <path
       style="fill:#000000;fill-opacity:1;stroke:none;stroke-width:19.8001;stroke-linecap:round;stroke-linejoin:round;paint-order:stroke markers fill"
       d="m 138.89171,97.928807 c -6.10368,-0.158596 -11.13066,-0.3257 -11.17102,-0.371388 -0.25361,-0.286943 0.67943,-9.610554 0.98812,-9.874077 0.22382,-0.19105 8.12586,-0.421802 19.1771,-0.559989 10.33802,-0.129278 19.10941,-0.350545 19.49196,-0.491718 0.38255,-0.141163 0.69555,-0.467953 0.69555,-0.726191 0,-0.595414 -5.81355,-2.974012 -16.49428,-6.74861 -4.59058,-1.622314 -10.6343,-3.878262 -13.43049,-5.013215 l -5.08398,-2.063549 0.25794,-1.043941 c 1.17509,-4.755681 11.9276,-22.796252 16.05736,-26.941009 l 0.78703,-0.789886 12.23218,6.418863 c 19.71327,10.344569 23.40145,12.156107 25.1494,12.352735 0.85165,0.0958 0.98409,-0.01423 0.92699,-0.770146 -0.0935,-1.237383 -2.33492,-4.308448 -10.12826,-13.877035 -12.39974,-15.224274 -13.1325,-16.208434 -12.64608,-16.98432 1.38289,-2.205779 12.85508,-7.4288 21.84735,-9.946585 4.66349,-1.305751 14.26829,-3.214925 18.74033,-3.725063 1.41972,-0.161949 1.46019,-0.134869 1.86748,1.24966 0.22899,0.778356 2.30383,8.438416 4.61075,17.02236 4.95728,18.445811 4.97072,18.491102 5.48494,18.491102 1.03398,0 -2.46177,-15.463158 -7.08933,-31.35904 -0.82929,-2.848639 -1.23149,-4.848034 -1.01281,-5.03472 0.86897,-0.741788 18.09452,-0.568582 18.98419,0.190886 0.43658,0.372675 -0.69284,4.619188 -4.30461,16.184979 -1.95216,6.251351 -3.98462,12.89288 -4.51656,14.758954 -0.97375,3.415912 -1.27297,6.017957 -0.62234,5.411618 0.44398,-0.413746 1.13714,-2.430756 5.99888,-17.45628 4.62434,-14.291888 5.80893,-17.500023 6.76225,-18.313836 0.57972,-0.494865 1.05722,-0.544094 3.03133,-0.312509 9.23083,1.082896 28.0915,7.975407 33.72822,12.325767 l 1.78925,1.380925 -4.20686,5.76787 c -9.7047,13.305699 -17.6715,24.684095 -17.42607,24.888363 0.84999,0.707437 9.74605,-10.681514 20.0419,-25.658195 l 2.86169,-4.162693 1.4578,0.997624 c 2.28315,1.562448 5.43755,4.469859 6.61716,6.099059 0.5916,0.817073 1.55072,1.837035 2.13138,2.266581 0.6873,0.508416 0.91704,0.891373 0.6583,1.097257 -0.21861,0.173945 -6.12076,3.645862 -13.11592,7.715364 -17.14833,9.976217 -20.28234,12.033464 -18.33174,12.033464 0.5186,0 12.31561,-6.6311 27.0028,-15.178286 6.31256,-3.673575 6.71596,-3.854759 7.26265,-3.261934 3.70719,4.01993 10.37937,14.490625 13.80449,21.663442 2.4652,5.162592 2.89099,6.472601 2.30108,7.079396 -0.25928,0.266665 -6.04909,2.517999 -12.86626,5.002969 -14.15436,5.159474 -18.77558,7.074599 -18.77558,7.781009 0,0.747148 2.28908,0.902617 20.07135,1.363256 8.85325,0.229332 16.14339,0.447199 16.20032,0.484143 0.057,0.03695 0.49674,2.227158 0.97733,4.867146 0.59357,3.260461 0.74389,4.910879 0.46872,5.145789 -0.24891,0.212486 -6.44889,0.462394 -16.08052,0.648161 l -15.6754,0.302328 -4.21031,-0.807306 c -14.55544,-2.790931 -34.21086,-4.336221 -55.40754,-4.356065 -15.00072,-0.01411 -23.16683,0.471533 -36.96307,2.197952 -4.37198,0.547098 -8.59789,0.995147 -9.39096,0.995671 -0.79305,5.23e-4 -2.04502,0.214624 -2.78217,0.475776 -2.23968,0.793473 -9.14191,1.563988 -13.50997,1.508175 -2.2692,-0.02906 -9.11976,-0.182481 -15.22344,-0.341058 z"
       id="path2349937" />
    <path
       style="fill:#000000;fill-opacity:1;stroke:none;stroke-width:19.8001;stroke-linecap:round;stroke-linejoin:round;paint-order:stroke markers fill"
       d="m 131.26017,85.156071 c -1.40323,-0.265956 -1.40255,-0.172349 -0.0333,-4.719805 1.11632,-3.707399 2.13885,-6.171052 2.56057,-6.169323 0.1402,5.37e-4 7.49849,2.515829 16.35175,5.589446 l 16.09681,5.588394 -16.89172,-0.03138 c -9.29048,-0.01723 -17.42831,-0.133056 -18.08411,-0.257348 z"
       id="path2349939" />
    <path
       style="fill:#000000;fill-opacity:1;stroke:none;stroke-width:19.8001;stroke-linecap:round;stroke-linejoin:round;paint-order:stroke markers fill"
       d="m 180.34554,56.606321 c -20.56766,-10.97317 -27.4242,-14.763955 -27.4242,-15.16203 0,-0.242678 2.33317,-2.461353 5.18485,-4.930388 l 5.18485,-4.489144 1.58481,1.526786 c 0.87165,0.839733 5.28633,5.954475 9.81043,11.366092 4.5241,5.411613 9.33679,11.098903 10.69492,12.638413 1.35809,1.539509 2.34562,2.790554 2.19451,2.780097 -0.15111,-0.01043 -3.40469,-1.688878 -7.23017,-3.729826 z"
       id="path2349941" />
    <path
       style="fill:#000000;fill-opacity:1;stroke:none;stroke-width:19.8001;stroke-linecap:round;stroke-linejoin:round;paint-order:stroke markers fill"
       d="m 276.61491,85.166834 -2.89497,-0.21342 12.83129,-4.642435 c 7.0572,-2.553333 13.75992,-4.952317 14.8949,-5.331067 l 2.06365,-0.68864 0.85415,1.938208 c 1.25252,2.842178 2.94006,8.521272 2.61462,8.79908 -0.35672,0.304529 -26.49385,0.423554 -30.36364,0.138274 z"
       id="path2349943" />
    <path
       style="fill:#000000;fill-opacity:1;stroke:none;stroke-width:19.8001;stroke-linecap:round;stroke-linejoin:round;paint-order:stroke markers fill"
       d="m 157.11513,90.385857 c 0,-2.828868 0.024,-3.631901 0.10964,-3.661371 0.0877,-0.03018 0.0877,-0.03893 0,-0.04367 -0.0758,-0.0042 -0.10964,-0.15625 -0.10964,-0.49239 v -0.486474 h 5.2604 c 2.89322,0 5.25951,-0.02523 5.25843,-0.05613 -0.001,-0.03088 -2.36778,-0.864431 -5.25932,-1.852356 l -5.25729,-1.796224 -10e-4,-0.580029 c -6e-4,-0.319017 0.016,-0.580032 0.0368,-0.580032 0.0771,0 4.9649,1.798205 6.39098,2.351218 2.87081,1.113271 4.39886,1.827501 4.99055,2.332661 0.28694,0.244963 0.32878,0.26079 0.32878,0.124354 0,-0.477459 -2.39338,-1.594521 -7.8906,-3.682796 -1.27784,-0.48542 -2.66856,-1.008581 -3.09049,-1.162574 l -0.76713,-0.279998 V 63.42476 c 0,-16.660189 0.003,-17.093389 0.16352,-17.020584 0.09,0.04109 2.84179,1.47872 6.11521,3.194739 10.65888,5.58764 15.78681,8.237527 19.14269,9.892056 1.78927,0.882154 4.26802,1.962418 4.91358,2.141373 0.67132,0.186111 1.51047,0.242551 1.63808,0.110176 0.0814,-0.08449 0.0122,-0.103516 -0.39704,-0.108422 -1.07464,-0.0129 -4.01981,-1.317802 -10.70978,-4.745127 -4.29928,-2.202552 -20.55025,-10.726779 -20.76003,-10.889402 -0.0808,-0.06267 -0.1058,-0.291871 -0.0877,-0.806506 l 0.0253,-0.718951 4.16447,2.24886 c 9.0484,4.886204 24.71208,13.208939 26.80792,14.24411 0.39878,0.196968 0.75127,0.335747 0.7833,0.308405 0.0793,-0.06761 -0.44234,-0.691061 -2.16802,-2.591723 -2.37302,-2.613629 -5.89061,-6.760511 -11.39562,-13.434248 -5.78216,-7.009744 -8.34459,-9.981737 -10.62801,-12.326725 -0.89615,-0.920335 -1.09382,-1.063663 -1.35479,-0.982399 -0.6204,0.193184 -2.22372,1.370705 -4.4777,3.288536 l -1.7754,1.510616 v -1.406113 -1.406115 l 0.85483,-0.668003 c 5.3,-4.141743 12.74371,-8.362816 20.2947,-11.508443 4.59008,-1.912148 8.20045,-3.089287 13.13078,-4.281208 l 1.18359,-0.286134 4.03298,-0.01477 4.03298,-0.01478 -1.57812,0.296553 c -6.19371,1.163894 -10.28787,2.166498 -14.50996,3.553286 -9.5253,3.128673 -18.02345,7.47543 -18.67921,9.554307 -0.074,0.234165 -0.0603,0.343663 0.075,0.604598 0.34285,0.661667 4.97452,6.449834 11.63154,14.535882 7.80414,9.479407 10.79557,13.413363 11.58145,15.230478 0.23516,0.543722 0.11791,-0.05059 -0.12988,-0.658252 -0.64294,-1.576783 -2.83046,-4.462372 -11.18884,-14.75933 -11.21403,-13.81496 -11.81792,-14.636899 -11.3185,-15.405496 0.18294,-0.281563 1.09711,-1.04188 1.82155,-1.514993 1.84625,-1.20576 4.59128,-2.58388 8.31629,-4.175122 3.69754,-1.579511 7.01708,-2.796865 10.43314,-3.82607 3.16255,-0.952834 8.74009,-2.20514 14.18911,-3.185836 l 1.43264,-0.257842 h 2.96615 2.96616 l 0.0907,0.24324 c 0.12091,0.324008 1.2756,4.569472 4.65667,17.12025 4.8256,17.912933 5.02964,18.610857 5.48455,18.759873 0.23142,0.0758 0.2997,-0.114051 0.30114,-0.837295 0.005,-2.895407 -2.8482,-15.188865 -6.49769,-27.988913 -1.28314,-4.500444 -1.52581,-5.452273 -1.77922,-6.97907 l -0.0527,-0.318085 h 6.57654 6.57654 V 27.621537 38.09694 l -0.87124,2.827875 c -2.48641,8.070345 -3.07684,10.357985 -3.07271,11.905122 0.001,0.556837 0.0825,0.735691 0.30102,0.664133 0.32332,-0.105924 0.91952,-1.657467 2.59287,-6.747672 0.54129,-1.646537 0.99897,-3.007739 1.01711,-3.024888 0.0182,-0.01714 0.033,11.012782 0.033,24.51096 l -1e-5,24.542149 -7.64949,0.0051 c -11.47894,0.007 -17.37561,0.246585 -25.7979,1.046616 l -1.9288,0.183216 h -15.75963 l -15.7593,1.41e-4 z m 3.08605,-3.766749 c -0.44847,-0.01363 -1.15862,-0.01354 -1.57811,1.45e-4 -0.4195,0.01369 -0.0525,0.02482 0.81541,0.02474 0.86797,-7.5e-5 1.21118,-0.01123 0.7627,-0.02487 z m 6.71321,-0.172028 c 1.28505,-0.07192 1.5873,-0.148548 1.77649,-0.45031 0.0768,-0.122586 0.0646,-0.125111 -0.15698,-0.03206 -0.56371,0.236757 -2.47024,0.427838 -5.59514,0.56078 -1.37305,0.05841 -1.32673,0.06046 0.62037,0.0274 1.15729,-0.01965 2.66716,-0.06726 3.35526,-0.105775 z"
       id="path2349945" />
    <path
       style="fill:#000000;fill-opacity:1;stroke:none;stroke-width:19.8001;stroke-linecap:round;stroke-linejoin:round;paint-order:stroke markers fill"
       d="m 157.11513,90.385857 c 0,-2.828868 0.024,-3.631901 0.10964,-3.661371 0.0877,-0.03018 0.0877,-0.03893 0,-0.04367 -0.0758,-0.0042 -0.10964,-0.15625 -0.10964,-0.49239 v -0.486474 l 5.28233,-0.0023 c 4.17222,-0.0023 5.25241,-0.02154 5.14001,-0.09355 -0.0784,-0.05016 -2.4549,-0.882633 -5.28145,-1.849978 l -5.13915,-1.758801 -6.1e-4,-0.580026 c -4.9e-4,-0.319019 0.0164,-0.580034 0.0375,-0.580034 0.0821,0 4.82404,1.740669 6.30246,2.313499 2.95958,1.146731 4.53464,1.885774 5.12255,2.403572 0.24565,0.216363 0.28494,0.230295 0.28494,0.101075 0,-0.346602 -1.08151,-0.940448 -3.72612,-2.045958 -1.55637,-0.6506 -5.10033,-2.022914 -7.25497,-2.809322 l -0.76719,-0.279931 V 63.424992 46.329701 l 0.19727,0.09007 c 0.10851,0.04952 2.84062,1.476667 6.07138,3.171396 14.74855,7.736492 19.80794,10.309138 22.4444,11.412737 1.45412,0.608681 1.92277,0.751294 2.64012,0.803404 0.67629,0.04915 0.83506,-0.09214 0.16948,-0.150786 -1.76332,-0.155357 -7.93037,-3.215671 -29.85685,-14.816082 l -1.62196,-0.858111 -0.0251,-0.769612 -0.0252,-0.769612 0.20047,0.111619 c 3.19706,1.780104 24.96639,13.389169 29.46844,15.714822 1.86547,0.963661 -6.16605,-4.213683 -6.16605,-4.321402 0,-0.09398 7.55393,4.31086 6.12483,2.728781 -2.56586,-2.840518 -5.47105,-6.268095 -11.60281,-13.68912 -5.09072,-6.161129 -7.51514,-8.991888 -9.65923,-11.278158 -1.36891,-1.459664 -1.81603,-1.8439 -2.06873,-1.777706 -0.5967,0.156314 -2.26958,1.385104 -4.64854,3.414516 l -1.64575,1.403948 0.0238,-1.433525 0.0238,-1.43352 0.96442,-0.748489 c 5.05891,-3.926305 12.20083,-8.004923 19.39728,-11.077434 4.88843,-2.087106 9.63092,-3.640685 14.17592,-4.643849 l 1.2108,-0.267243 3.8688,0.0054 3.86879,0.0054 -1.57811,0.295264 c -3.76546,0.704509 -7.18078,1.451811 -9.76857,2.137432 -9.29139,2.461731 -20.5854,7.496719 -22.94789,10.230415 -0.48334,0.559297 -0.60659,0.922929 -0.43298,1.277608 0.3307,0.67567 4.49507,5.881439 11.88957,14.862887 7.42223,9.015122 10.48106,13.04356 11.36573,14.968529 l 0.12035,0.261949 -0.0518,-0.299372 c -0.22396,-1.294807 -2.494,-4.416103 -9.38936,-12.910356 -1.25307,-1.54363 -3.48106,-4.288481 -4.95107,-6.099671 -6.67641,-8.225944 -8.33801,-10.433836 -8.46619,-11.249732 -0.061,-0.388471 0.0941,-0.620205 0.82026,-1.224837 1.68823,-1.405754 4.84436,-3.066511 9.84972,-5.182918 7.06841,-2.988721 12.22166,-4.505803 21.34847,-6.284835 4.35191,-0.848294 3.89633,-0.799677 7.27608,-0.776332 l 2.98007,0.02058 0.63551,2.320121 c 0.34954,1.276068 2.13855,7.894025 3.97558,14.706574 4.63021,17.171053 5.01537,18.517558 5.41835,18.942383 0.14238,0.150101 0.18622,0.16076 0.30762,0.07475 0.85176,-0.603439 -2.22791,-14.410741 -6.65389,-29.83191 -0.82735,-2.882687 -1.22502,-4.420124 -1.39887,-5.408164 -0.0741,-0.420952 -0.13466,-0.782427 -0.13466,-0.803281 0,-0.02083 2.95898,-0.03791 6.57551,-0.03791 h 6.57549 v 10.469845 10.46985 l -1.23429,4.030913 c -2.19755,7.176578 -2.70729,9.189153 -2.70806,10.691907 -4.3e-4,0.860039 0.24971,0.948316 0.64841,0.228855 0.26504,-0.478274 1.23747,-3.22023 2.41691,-6.815009 0.4457,-1.358394 0.82536,-2.483841 0.84369,-2.50099 0.0183,-0.01714 0.0333,11.012785 0.0333,24.51096 v 24.54214 l -7.64951,0.0051 c -11.46342,0.008 -17.51529,0.253267 -25.78,1.046445 l -1.91093,0.183388 h -15.77718 -15.77716 z m 2.78365,-3.766244 c -0.27728,-0.01487 -0.731,-0.01487 -1.00826,0 -0.27728,0.01482 -0.0504,0.027 0.50412,0.027 0.55453,0 0.78139,-0.01213 0.50414,-0.027 z m 6.96595,-0.171045 c 1.24468,-0.06794 1.64671,-0.165579 1.81999,-0.441976 0.0841,-0.13418 0.075,-0.136731 -0.15083,-0.04189 -0.53583,0.225035 -2.02104,0.37985 -5.3693,0.559665 -1.02376,0.05497 -0.93498,0.05859 0.65757,0.0267 1.01261,-0.0203 2.38178,-0.06639 3.04257,-0.102462 z"
       id="path2349947"
       sodipodi:nodetypes="cscsccssccssssssccccssssscccsssssssscccssscccsssssscsssssssscsssssssscccssssssccsccccscsssscssss" />
  </g>
</svg>
